<?xml version="1.0" encoding="UTF-8" standalone="no"?>
<!-- Created with Inkscape (http://www.inkscape.org/) -->

<svg
   xmlns:dc="http://purl.org/dc/elements/1.1/"
   xmlns:cc="http://creativecommons.org/ns#"
   xmlns:rdf="http://www.w3.org/1999/02/22-rdf-syntax-ns#"
   xmlns:svg="http://www.w3.org/2000/svg"
   xmlns="http://www.w3.org/2000/svg"
   xmlns:sodipodi="http://sodipodi.sourceforge.net/DTD/sodipodi-0.dtd"
   xmlns:inkscape="http://www.inkscape.org/namespaces/inkscape"
   width="131.22563"
   height="57.727989"
   viewBox="0 0 34.720115 15.273863"
   version="1.1"
   id="svg3935"
   inkscape:version="0.92.0 r15299"
   sodipodi:docname="virgin money.svg">
  <defs
     id="defs3929">
    <clipPath
       id="clipPath3515"
       clipPathUnits="userSpaceOnUse">
      <path
         inkscape:connector-curvature="0"
         id="path3513"
         d="m 597.001,306.675 h 97.668 v 42.547 h -97.668 z" />
    </clipPath>
  </defs>
  <sodipodi:namedview
     id="base"
     pagecolor="#ffffff"
     bordercolor="#666666"
     borderopacity="1.0"
     inkscape:pageopacity="0.0"
     inkscape:pageshadow="2"
     inkscape:zoom="2.8266806"
     inkscape:cx="98.320381"
     inkscape:cy="10.973954"
     inkscape:document-units="mm"
     inkscape:current-layer="layer1"
     showgrid="false"
     fit-margin-top="0"
     fit-margin-left="0"
     fit-margin-right="0"
     fit-margin-bottom="0"
     units="px"
     inkscape:window-width="1280"
     inkscape:window-height="744"
     inkscape:window-x="-4"
     inkscape:window-y="-4"
     inkscape:window-maximized="1" />
  <metadata
     id="metadata3932">
    <rdf:RDF>
      <cc:Work
         rdf:about="">
        <dc:format>image/svg+xml</dc:format>
        <dc:type
           rdf:resource="http://purl.org/dc/dcmitype/StillImage" />
        <dc:title></dc:title>
      </cc:Work>
    </rdf:RDF>
  </metadata>
  <g
     inkscape:label="Layer 1"
     inkscape:groupmode="layer"
     id="layer1"
     transform="translate(-71.974988,-151.64744)">
    <g
       id="g4051">
      <path
         d="m 79.611922,151.77973 c 4.144786,0 7.504642,3.35986 7.504642,7.50464 0,4.14479 -3.359856,7.50464 -7.504642,7.50464 -4.144786,0 -7.504642,-3.35985 -7.504642,-7.50464 0,-4.14478 3.359856,-7.50464 7.504642,-7.50464"
         style="fill:#ffffff;fill-opacity:1;fill-rule:evenodd;stroke:none;stroke-width:0.35277778"
         id="path3519"
         inkscape:connector-curvature="0" />
      <path
         d="m 79.611922,152.2266 c 3.897842,0 7.057672,3.15983 7.057672,7.05802 0,3.89785 -3.15983,7.05768 -7.057672,7.05768 -3.897842,0 -7.058025,-3.15983 -7.058025,-7.05768 0,-3.89819 3.160183,-7.05802 7.058025,-7.05802"
         style="fill:#e10a0a;fill-opacity:1;fill-rule:evenodd;stroke:none;stroke-width:0.35277778"
         id="path3523"
         inkscape:connector-curvature="0" />
      <path
         d="m 81.805953,156.32771 -0.01023,-0.0183 0.0032,-0.0247 0.0018,-0.0127 0.006,-0.0134 0.0025,-0.0187 0.0014,-0.0138 0.0053,-0.004 0.0014,-0.007 0.0025,-0.0134 0.0092,-0.024 0.0056,-0.0131 0.01411,-0.0247 0.0049,-0.009 0.0053,-0.01 0.0092,-0.008 0.006,-0.0102 0.01341,-0.0162 0.0035,-0.004 v -0.006 l 0.01058,-0.005 0.0053,-0.008 0.006,-0.008 0.01094,-0.005 0.0067,-0.009 0.01693,-0.0137 0.006,-0.009 0.01164,-0.004 0.0039,-0.005 0.0053,-10e-4 0.0032,-0.004 0.0092,-0.006 0.0074,-0.006 0.0063,-0.002 0.0035,-0.005 0.0088,-0.004 0.0074,-0.007 0.0095,-0.005 0.0194,-0.009 0.0081,-0.006 0.02152,-0.006 0.0095,-0.005 0.01023,-0.002 0.02117,-0.007 0.02364,-0.006 0.01164,-0.004 0.0053,0.001 0.0053,-0.001 0.02611,-0.001 0.01305,0.001 0.01905,-7.1e-4 0.01905,10e-4 0.01235,0.002 0.0088,0.006 0.01129,0.003 0.01235,0.006 0.02328,-0.004 0.0088,-7.1e-4 0.0071,0.007 0.0046,0.0102 0.0078,0.0134 0.0067,0.008 0.0053,0.0106 0.0078,0.009 0.0088,0.0102 v 0.0152 l 0.006,0.025 -0.0025,0.006 0.0021,0.007 0.0049,0.0123 0.0014,0.008 0.0028,0.006 -0.0025,0.006 -0.01164,0.0159 -0.0092,0.0222 -0.0028,0.019 -0.0011,0.009 -0.0053,0.007 -0.0021,0.0117 -0.0074,0.009 -0.006,0.0109 -0.0081,0.009 -0.0053,0.01 -0.0028,0.0116 -0.02046,0.0138 -0.01905,0.0268 -0.02364,0.025 -0.0127,0.0197 -0.01376,0.0198 -0.01446,0.0215 -0.04092,0.0346 -0.02364,0.0152 -0.0099,0.007 -0.0067,0.01 -0.02223,0.006 -0.01729,0.0152 -0.03528,0.0162 -0.0085,0.007 -0.02222,0.001 -0.0085,-0.004 -0.01199,0.001 -0.02399,0.005 -0.03634,-0.005 -0.04586,-0.012 -0.02293,-0.008 -0.0194,-0.0113 -0.0321,-0.0339 -0.006,-0.008 -0.0028,-0.0127 -0.0067,-0.0236 -0.0049,-0.0265 m -0.333022,2.66841 -0.0081,-0.0349 0.0018,-0.0201 v -0.043 l 0.0042,-0.0646 -7.05e-4,-0.0166 0.0063,-0.019 0.0014,-0.0427 0.0035,-0.0377 0.0025,-0.0427 0.006,-0.0395 0.0071,-0.0624 -3.53e-4,-0.0201 0.0032,-0.0134 -0.0021,-0.002 0.0025,-7.1e-4 -0.0021,-0.008 0.0035,-0.0102 0.0018,-0.0141 -0.0018,-0.004 0.0039,-0.007 0.0011,-0.0134 0.0039,-0.0385 -0.0011,-0.01 -0.0018,-0.008 0.0035,-0.0127 0.0042,-0.0363 0.0039,-0.0226 -3.53e-4,-0.0194 0.0039,-0.0402 0.0042,-0.0282 0.0018,-0.0109 -0.0035,-0.009 0.0035,-0.008 0.0035,-0.0346 -0.0011,-0.0201 0.0039,-0.001 0.0028,-0.002 -7.06e-4,-0.005 -0.0032,-0.002 v -0.006 l 0.0039,-0.005 -0.0039,-0.008 0.0025,-0.009 0.0039,-0.0183 0.0014,-0.0349 7.06e-4,-0.003 0.0078,-0.003 -0.0039,-0.007 -0.0032,-0.002 v -0.005 l 0.0039,-0.005 -0.0042,-0.005 0.0067,-0.004 -0.0014,-0.009 -0.0011,-0.0254 0.0042,-0.0162 3.53e-4,-0.0176 0.0018,-0.009 0.0039,-0.001 0.0014,-0.005 -0.0064,-0.01 0.0035,-0.002 0.0028,-0.0141 3.53e-4,-0.0254 0.0014,-0.005 -3.53e-4,-0.004 7.05e-4,-0.0215 0.0056,-0.013 0.0018,-0.0222 -0.0032,-0.007 -0.0032,-0.008 0.0021,-0.003 0.0071,-0.001 -0.0032,-0.01 0.0021,-0.008 0.0011,-0.006 -0.0032,-0.006 -0.0014,-0.004 h 0.0035 l 0.0042,0.002 -3.53e-4,-0.002 -0.0046,-0.002 0.0011,-0.009 0.0028,-0.001 0.0021,-0.002 -0.0035,-0.001 0.0028,-0.006 7.05e-4,-0.0106 v -0.0127 l 0.0028,-0.0176 0.0014,-0.0233 -7.06e-4,-0.0109 7.06e-4,-0.005 h 0.0042 l 3.53e-4,-0.01 -0.0025,-0.005 0.0025,-0.0116 0.0025,-0.0187 0.0014,-0.0314 7.06e-4,-0.006 v -0.005 l 0.0025,-0.002 0.0039,-0.006 -0.0018,-0.004 v -0.0106 l 0.0025,-0.009 0.0025,-0.0131 0.0035,-0.002 7.05e-4,-0.004 -0.0042,-0.001 3.53e-4,-0.007 3.52e-4,-0.0106 0.0039,-3.5e-4 -0.0028,-0.003 -0.0014,-0.003 0.0035,0.002 0.0011,-0.0187 0.0032,-0.018 0.0032,-0.0148 0.0032,-0.003 -7.06e-4,-0.0166 -0.0049,-0.008 0.0074,-0.0162 0.0018,-0.0236 0.0011,-0.0109 0.0032,-10e-4 -0.0035,-0.005 0.0042,-0.002 -0.0014,-0.008 -0.0021,-0.003 0.0028,-0.003 0.0021,-0.0222 0.0028,-0.0113 -0.0018,-0.001 0.0074,-0.031 0.0049,-0.0159 0.0035,-0.002 3.53e-4,-0.0102 0.006,-0.0102 0.0035,-0.006 0.0018,-0.0123 0.0028,-0.005 -0.0014,-0.003 0.0053,-0.002 0.0011,-0.005 -7.06e-4,-0.004 0.0025,-0.002 0.006,-0.005 -0.0032,-0.002 0.0081,-0.0166 -0.0018,-0.008 0.01552,-0.0222 0.0035,-0.0127 0.0046,-0.002 0.0078,-0.0141 0.0032,-0.002 0.0067,-0.0148 0.01764,-0.0194 0.01799,-0.0205 0.0067,-0.006 0.0018,-0.004 0.01129,-0.007 0.0042,-0.007 0.0085,-0.005 0.02434,-0.0222 0.006,-0.006 0.01905,-0.0162 0.01658,-0.007 0.0092,-0.004 0.006,-0.006 0.0046,3.5e-4 0.0021,-0.003 0.01094,-0.005 0.0095,-0.003 0.0085,-0.004 0.01094,-0.002 0.01164,-7.1e-4 0.0088,-0.004 0.0074,-0.004 0.0042,-3.6e-4 0.0039,-7e-4 0.0049,0.007 0.0056,-0.004 0.02716,-0.003 0.01129,-0.001 h 0.0088 l 0.0046,-0.004 0.0049,0.002 0.01976,0.002 0.0127,0.004 0.0063,0.005 0.0099,0.001 0.0074,0.004 0.0063,0.005 0.006,0.007 0.0056,0.004 0.0042,0.002 -3.53e-4,0.004 0.0032,0.002 3.53e-4,0.004 0.0028,0.008 -3.53e-4,0.01 0.0025,-7e-4 0.0032,0.006 -7.06e-4,0.005 -0.0014,0.0106 -0.0035,0.002 0.0035,0.001 0.0032,0.002 v 0.005 l -0.0018,0.004 v 0.002 l -0.0035,0.002 -0.0014,0.007 0.0035,-3.5e-4 -7.05e-4,0.002 0.0028,0.006 3.53e-4,0.004 0.0032,-0.004 0.0028,-0.003 0.0067,0.001 0.0042,0.001 -0.0014,0.004 0.0025,0.003 -0.0046,0.006 0.0032,-0.002 -0.0011,0.003 -0.0021,0.0131 0.0011,0.004 0.0046,0.007 -0.0018,0.002 0.0028,-3.5e-4 0.0032,-0.005 0.0028,0.002 0.0025,0.008 -0.0014,0.004 0.0025,0.003 0.0039,0.002 0.0021,0.007 -7.05e-4,0.009 -0.0039,0.008 -7.05e-4,0.008 0.0014,0.0123 0.0032,0.002 0.0018,0.007 -0.0021,0.007 -0.0056,0.004 -7.05e-4,0.0102 -0.0049,0.006 -0.0074,0.004 0.0064,0.006 v 0.004 l 0.0032,-0.001 -3.53e-4,0.005 -0.0028,3.5e-4 0.0014,0.002 -0.0053,0.002 -0.0035,-3.5e-4 -0.0025,0.007 7.05e-4,0.004 0.0028,0.002 0.0046,0.006 -0.0011,0.007 -0.0127,0.012 -0.006,0.006 0.0021,0.003 0.0028,0.004 0.0014,0.005 v 0.004 l 0.0025,-0.002 0.0028,0.002 h 0.0074 l -0.0028,0.002 -0.0042,0.001 -0.0046,0.012 0.0028,0.002 0.0014,0.001 7.05e-4,0.002 0.0039,0.002 -7.06e-4,0.009 -0.0028,10e-4 7.06e-4,0.004 -0.0014,0.008 0.0046,0.006 -0.0071,0.005 -0.0085,0.004 7.05e-4,0.004 -0.0025,0.005 0.0014,0.001 0.0011,0.005 0.0071,0.001 -0.0018,0.008 -0.0042,-0.001 -0.0032,0.002 -0.0018,0.004 0.0025,0.004 0.0011,0.01 0.0049,0.001 -0.0046,0.005 -0.0018,0.004 -0.0063,0.005 -0.0042,0.007 -0.0025,0.003 -0.0042,0.001 -0.0021,0.007 0.0011,0.002 -0.0014,0.001 0.01482,0.003 0.0056,-3.5e-4 0.0028,0.002 0.0042,-0.002 -0.0074,0.006 v 0.008 l -0.0046,0.004 0.0025,0.005 0.0014,0.002 -0.0039,3.6e-4 -3.53e-4,-0.004 h -0.0046 l -0.0049,0.002 -0.0049,-0.002 7.06e-4,0.004 0.0028,0.007 0.0049,0.003 0.0018,0.008 -7.06e-4,0.01 -0.0053,0.005 -0.0011,-0.003 -0.0046,-7e-4 -0.0028,0.007 0.0053,0.008 0.0063,0.006 -3.53e-4,0.003 0.0035,0.002 -0.0025,0.004 -0.0025,0.004 -0.0042,0.001 -0.0035,-0.002 -0.0011,-3.5e-4 -0.0014,0.002 -3.53e-4,0.0187 -0.0021,0.0113 7.05e-4,0.006 -0.0021,0.003 -0.0021,0.004 0.0014,0.004 0.0028,0.008 -0.0011,0.004 -3.53e-4,0.0116 v 0.0268 0.0205 l 0.0018,0.002 0.0056,-7.1e-4 0.0014,-0.002 0.0028,0.003 -0.0039,0.004 -0.0049,0.008 -0.0032,0.002 0.0042,7.1e-4 -0.0025,0.002 -7.05e-4,0.003 0.0028,-0.002 0.0035,10e-4 0.0035,0.002 -0.0032,0.003 0.0011,0.003 -0.0014,0.003 0.0014,0.004 -0.0018,0.002 0.0046,0.006 0.0046,0.007 -3.53e-4,0.004 -0.0021,-7.1e-4 -0.0011,0.002 -0.0035,0.018 -0.0067,0.0152 -0.0028,0.019 0.0025,0.008 0.0071,0.008 0.0032,10e-4 h 0.0035 l -0.0025,0.005 0.0025,0.004 -0.0092,0.006 -0.0046,0.012 0.0092,0.006 -0.0025,0.003 -0.0014,0.009 -0.0053,0.005 3.53e-4,0.0106 7.05e-4,0.018 0.0053,0.004 0.0014,0.003 0.0039,0.001 0.0032,0.005 -0.0071,0.005 -0.006,0.009 -0.0014,0.01 0.0025,0.007 -0.0032,0.007 0.0074,-0.004 0.006,-0.006 0.0018,0.009 -0.0092,0.009 -0.0032,0.005 0.0014,0.006 -0.0042,0.006 0.0014,0.0258 0.006,0.004 -3.53e-4,0.007 0.01164,0.0116 -0.0074,0.004 -0.006,0.009 0.0028,0.0113 0.0067,0.008 3.53e-4,0.0109 -0.0049,0.008 -0.0039,0.0198 0.0099,0.01 -0.0011,0.008 -0.0071,-10e-4 -0.01199,0.009 0.0035,0.007 -0.0025,0.007 v 0.007 l -0.0085,-0.003 -0.01199,0.008 0.006,0.0254 0.0028,0.007 -0.0081,0.004 -0.0042,0.008 0.0039,0.0187 -3.53e-4,0.0102 -3.53e-4,0.007 7.06e-4,0.0102 0.0053,0.008 0.01693,0.008 0.0067,0.006 0.0046,0.009 0.0046,0.006 -0.0049,0.007 -0.0032,0.0109 -3.53e-4,0.004 -0.0046,-3.6e-4 -0.0035,-0.002 0.0018,-0.003 -0.0074,-0.005 -0.0063,-0.004 -0.0053,10e-4 0.0035,-0.007 -0.0056,-0.006 -0.0081,0.005 0.0014,0.0102 3.52e-4,0.008 0.0095,-3.6e-4 0.0046,0.004 -0.0032,0.003 0.0018,0.003 -0.0018,0.0102 3.53e-4,0.008 0.01235,0.005 0.006,-0.004 0.0032,0.006 7.05e-4,0.01 7.06e-4,0.01 -0.0074,-0.002 -0.02328,-0.0145 -0.0039,-0.001 -0.0025,-0.002 -0.0014,0.009 0.0025,0.008 -0.0042,0.0173 -3.53e-4,0.008 -0.0042,0.004 0.0049,0.008 -0.0028,0.01 -0.0025,0.0416 -0.0014,0.0646 -0.0011,0.0212 -0.0025,0.0356 0.0011,0.0102 -0.0035,0.006 0.0021,0.007 0.0021,0.005 -0.0056,0.004 -7.06e-4,0.0169 v 0.0406 l -0.0032,0.0402 0.0042,0.0194 0.01023,0.0106 v 0.018 l -0.0018,0.0131 0.0063,0.004 -0.0035,0.007 -0.0099,0.0131 0.0018,0.0123 0.0021,0.0145 -0.0053,0.001 0.0042,0.006 -0.006,0.0293 -0.0092,0.0251 -0.01552,0.009 -0.0053,0.0219 -0.01552,0.0275 -0.03422,0.0395 -0.02928,0.0275 -0.02117,0.025 -0.01058,0.005 -0.0042,0.007 -0.01764,0.005 -0.02681,0.0212 -0.01764,0.005 -0.0035,0.008 -0.0088,0.002 -0.03598,0.019 -0.05821,0.0321 -0.0575,0.0191 -0.04198,0.002 -0.03916,-0.004 -0.03387,-0.007 -0.01729,-0.0152 -0.02646,-0.0222 -0.0127,-0.0236 -0.01164,-0.0339 m 4.098572,-1.19027 -0.0088,0.0116 7.06e-4,0.007 -0.01376,0.0152 0.01693,-0.002 -3.53e-4,0.0183 0.01305,0.007 -0.01305,0.0106 -0.01623,0.004 -0.0018,0.0183 -0.0085,0.013 -3.53e-4,0.0155 -0.0046,0.007 -0.0032,-0.007 -0.01411,0.0201 0.0028,-7e-4 -0.01164,0.0106 7.06e-4,0.0109 -0.006,0.008 0.006,0.0187 -0.01164,-0.007 -0.0064,-3.5e-4 -0.0032,0.007 -0.0053,0.0141 -0.0092,0.0169 -0.01729,0.0222 -0.02223,0.0335 -0.01693,0.0116 -0.01411,0.0102 -0.01411,0.0155 -0.0127,0.0169 -0.01094,0.006 -0.0575,0.0409 -0.03105,0.019 -0.05856,0.0325 -0.0254,0.0131 -0.06209,0.0233 -0.05398,0.0222 -0.0388,0.01 -0.07585,0.024 -0.04127,0.0102 -0.03916,0.0138 -0.0769,0.0243 -0.0829,0.0268 -0.03563,0.0127 -0.07832,0.0289 -0.02505,0.009 -0.02716,0.0134 -0.02469,0.006 -0.02399,0.0109 -0.02399,0.007 -0.02293,0.0109 -0.01799,0.006 -0.01623,0.01 -0.03351,0.0134 -0.02963,0.013 -0.01446,0.007 -0.01129,0.009 -0.01587,0.001 -0.0127,0.009 -0.03034,0.0141 -0.02893,0.0113 -0.03034,0.0138 -0.03246,0.0155 -0.03493,0.0116 -0.01305,0.009 -0.0127,0.008 -0.03069,0.0138 -0.0014,0.004 h -0.0049 l -0.0095,0.004 -0.01834,0.01 -0.03281,0.0152 -0.04163,0.0222 -0.03069,0.0138 -0.01623,0.006 -0.01587,0.0134 -0.02752,0.012 -0.01482,0.009 -0.02822,0.0169 -0.01588,0.006 -0.01164,0.009 -3.53e-4,-0.003 -0.02611,0.0148 -0.01164,0.009 -0.01376,0.003 -0.0261,0.0155 -0.0067,0.002 -0.0032,0.005 -0.01411,0.002 -0.0099,0.009 -0.01129,0.007 -0.0381,0.0169 -0.0099,0.006 -0.01729,0.007 -0.0035,0.006 -0.01199,0.004 -0.02222,0.0148 -0.04233,0.0201 -0.0314,0.0159 -0.02928,0.0141 -0.03351,0.0187 -0.0388,0.0187 -0.0067,0.006 -0.0099,0.003 -0.01164,0.009 -0.02928,0.0152 -0.0321,0.0169 -0.0088,0.003 -0.0056,0.006 -0.02011,0.002 -0.0085,0.0116 -0.01446,0.007 -0.02822,0.0145 -0.0127,0.007 -0.01199,0.008 -0.0254,0.0176 -0.02787,0.006 -0.01129,0.0116 -0.01693,0.009 -0.0381,0.0169 -0.01199,0.009 -0.0314,0.0138 -0.01305,0.0131 -0.02963,0.0162 -0.01623,0.008 -0.01199,0.0102 -0.01164,0.004 -0.0088,0.007 -0.0127,0.01 -0.01305,0.002 -0.01976,0.0116 -0.0081,0.006 -0.01164,0.004 -0.02399,0.0145 -0.01199,0.009 -0.0127,0.004 -0.0314,0.0183 -0.02893,0.0162 -0.01199,0.009 -0.02858,0.0145 -0.01199,0.01 -0.06033,0.0314 -0.03316,0.019 -0.01658,0.007 -0.01129,0.0106 -0.03351,0.0169 -0.02364,0.0159 -0.0134,0.009 -0.01658,0.004 -0.0039,0.007 -0.0081,0.001 -0.01411,0.008 -0.0187,0.008 -0.01517,0.0113 -0.02822,0.0187 -0.01517,0.007 -0.01129,0.008 -0.01834,0.007 -0.01376,0.0113 -0.01517,0.006 -0.01094,0.0106 -0.02963,0.0152 -0.02469,0.0166 -0.03069,0.018 -0.03281,0.0201 -0.03175,0.0155 -0.03422,0.0194 -0.06315,0.0399 -0.0321,0.0184 -0.02399,0.0169 -0.06209,0.0356 -0.0321,0.019 -0.01341,0.01 -0.0074,0.005 -0.01094,0.002 -0.006,0.007 -0.006,0.003 -0.01341,0.008 -0.01058,0.0106 -0.02787,0.0117 -0.03175,0.019 -0.02752,0.018 -0.01164,0.009 -0.01376,0.009 -0.02646,0.0162 -0.02611,0.018 -0.0254,0.0138 -0.01552,0.0116 -0.0067,0.008 -0.0085,0.005 -0.03245,0.0194 -0.0014,0.004 -0.0321,0.0134 -0.01058,0.0116 -0.01587,0.005 -0.0074,0.007 -0.0063,0.003 -0.0127,0.009 -0.01164,0.008 -0.01058,0.01 0.0063,0.006 -0.01623,0.006 -0.01552,0.003 -0.01517,0.007 -0.0049,0.006 0.0014,0.007 -0.01693,0.006 -0.01552,0.005 -0.0314,0.0198 -0.02611,0.0187 -0.01341,0.009 -0.01094,0.009 -0.02787,0.0159 -0.0127,0.009 -0.01199,0.006 -0.02399,0.0183 -0.02999,0.0212 -0.0088,0.002 -0.0074,0.005 -0.0081,0.006 -0.0067,0.005 -0.006,0.005 -0.0049,0.005 -0.0046,3.5e-4 -0.01446,0.0102 -0.0011,0.006 -0.0071,10e-4 -0.01623,0.0106 -0.0095,0.008 -0.0081,0.007 -3.53e-4,-0.003 -0.01058,0.007 -0.0035,0.003 -0.0025,0.004 -0.0046,10e-4 -0.0032,0.002 -0.006,0.003 -0.0011,0.004 -0.0032,0.002 -0.0025,0.008 -0.0081,0.002 -0.0078,0.009 -0.0078,3.5e-4 -0.0074,0.004 -0.0081,0.005 -0.0067,0.006 -0.006,0.005 -0.0028,0.002 0.0021,0.002 -0.0053,0.0138 -0.0088,0.0134 -0.0063,0.005 -0.006,0.006 -0.02293,0.004 -0.0039,0.0116 -0.01517,0.004 -0.0063,0.009 -0.01058,-0.005 -0.0078,0.0123 0.0028,7.1e-4 -0.01446,0.018 -0.01235,0.01 0.0021,0.009 0.0028,0.003 -0.0011,0.004 0.0056,0.005 -0.0018,0.01 -0.0049,0.0106 -7.06e-4,0.012 -0.0088,0.0138 0.01446,0.008 7.06e-4,0.008 -0.0014,0.009 -0.0071,0.003 -0.0067,-0.001 -0.0018,0.006 0.0067,0.004 0.0014,0.0131 -0.0049,0.0155 3.52e-4,0.0116 0.0053,0.009 -0.0018,0.008 -0.0011,0.005 0.0011,0.008 -0.0046,0.007 -7.05e-4,0.008 0.0064,0.0127 0.0081,-0.004 0.0032,0.008 -0.0025,0.008 -0.0063,0.006 -0.0035,0.009 -0.0071,0.006 -0.0053,0.006 -0.0053,0.006 -3.52e-4,0.01 -0.0011,0.005 -0.0028,0.002 0.01517,0.008 0.0049,-0.005 0.0035,0.007 -0.0067,0.0141 -0.0025,0.0205 -0.0014,0.008 -0.0053,0.007 -0.0049,0.0169 -0.0056,0.005 0.0046,0.006 0.0074,0.001 0.0053,0.004 0.0014,0.008 0.0078,0.003 -3.53e-4,0.0194 v 0.0169 l -0.0056,0.0113 -0.0035,0.008 -0.0025,0.012 -0.0053,0.007 0.0056,0.007 -0.0039,0.007 -0.0011,0.0109 -0.0071,0.005 -0.0011,0.009 0.0053,0.007 -0.0035,0.0159 0.01305,0.005 0.0032,0.002 0.0028,-7e-4 7.05e-4,0.006 -0.0067,0.009 0.0042,0.0102 -0.01164,0.006 -0.0028,-0.01 -0.0092,-3.5e-4 -0.0042,0.0159 0.006,0.008 3.53e-4,0.008 0.006,0.0162 0.0049,0.007 0.0063,0.006 -0.0025,0.0166 -0.0028,0.004 v 0.005 l -0.0021,0.009 -0.0053,0.007 -0.0039,0.008 0.0014,0.0208 0.01411,0.009 -0.0046,0.008 -0.0011,0.0113 0.0056,0.007 -0.0021,0.0102 -0.0049,0.008 -0.0032,0.0109 -0.0046,0.003 -0.0011,0.006 v 0.007 l 0.0056,0.003 0.0025,0.0113 -0.0081,0.009 0.0018,0.008 0.0018,0.005 0.0049,0.004 -0.0028,0.007 -0.0035,0.004 -0.0018,0.006 0.0018,0.012 -0.0014,0.0134 -7.06e-4,0.0159 0.0025,0.005 -0.0018,0.006 v 0.0162 l 3.52e-4,0.0187 -0.0021,0.005 -0.0011,0.006 0.0056,0.01 0.0053,0.002 7.06e-4,0.007 -0.0035,0.0113 -0.0056,0.01 -0.0011,0.008 -0.0046,0.004 0.0078,0.005 0.0028,-0.004 0.0035,0.004 0.0046,0.008 0.0042,3.6e-4 v 0.004 l -0.0025,0.005 -0.0035,0.002 -0.0014,0.0102 v 0.005 l 0.006,7.1e-4 0.0042,0.004 -0.0025,0.006 -0.01305,10e-4 -0.01058,0.006 0.0046,0.006 -0.0018,0.006 -0.0056,0.002 -0.0018,0.006 -7.05e-4,0.007 -0.0053,0.002 v 7e-4 l 0.0032,0.005 0.0056,-0.002 0.0046,-0.004 0.0071,-3.5e-4 v 0.01 l -0.0018,0.013 0.0049,-3.5e-4 v 0.0134 l 0.0025,0.006 -0.0014,0.009 -0.0018,0.006 -0.0028,0.004 0.0046,0.002 0.0021,0.005 0.0049,0.002 -0.0088,0.003 -0.0035,0.005 v 0.0102 l 0.0021,0.005 0.0018,0.002 v 0.003 l -0.0014,0.006 -0.0032,0.005 -0.0028,0.0159 0.0014,0.0148 0.0014,0.005 3.53e-4,0.003 0.0021,0.001 -0.0011,0.004 -0.0028,0.004 -0.0042,0.005 -0.0046,0.002 0.0042,0.002 0.0063,0.006 0.0011,0.004 0.0025,0.001 -3.53e-4,0.005 -0.0053,0.003 v 0.006 l -3.53e-4,0.0134 0.0014,0.007 0.0011,0.005 -0.0028,0.006 7.06e-4,0.006 -7.06e-4,0.0141 0.0021,0.007 7.05e-4,0.007 -3.53e-4,0.0141 -0.0032,0.006 -0.0067,0.002 -0.0014,0.005 0.0085,0.002 0.0011,0.0138 3.52e-4,0.0176 -0.0056,0.0187 -0.0039,0.002 v 0.005 0.008 l -0.0092,0.004 -3.53e-4,0.006 0.0046,-7e-4 0.0046,-0.004 0.0046,0.003 0.0039,0.0113 -0.0039,0.005 -0.0053,0.002 v 0.006 l -7.06e-4,0.006 0.0088,0.01 0.0042,0.005 0.0049,0.002 -3.53e-4,0.0141 -0.0018,0.006 -0.0025,0.005 3.53e-4,0.006 -0.0021,0.006 -0.0025,0.005 -0.0011,0.006 -0.0035,0.0109 -0.0056,0.008 0.0035,0.004 0.0056,-0.001 0.0014,0.004 -0.0035,0.006 0.0067,0.002 -7.05e-4,0.0141 -0.0092,0.0166 -0.0032,0.0173 0.01058,-0.0109 0.006,-0.005 -0.0011,0.007 -0.0074,0.0134 -0.0014,0.01 -0.0042,0.006 0.0067,0.003 0.0053,-0.005 -0.0081,0.0113 -0.0039,0.005 0.0046,0.003 0.0078,0.004 0.0032,0.004 -0.0099,0.012 0.0035,0.007 0.0056,0.005 0.0085,-3.6e-4 7.06e-4,0.007 -0.01729,0.005 -0.01552,0.005 -0.0056,0.007 -7.05e-4,0.01 -0.0021,0.005 0.0011,0.005 -0.006,0.006 -0.0042,0.006 0.0049,0.005 0.0032,0.0166 0.0092,7e-4 -0.0014,0.008 -0.01023,0.008 -0.0046,0.006 0.0042,0.006 0.0028,0.007 0.0025,-0.007 0.01341,0.003 -0.0092,0.0109 0.01976,-0.009 0.006,0.007 0.0028,0.0106 0.0028,0.007 -0.0028,0.008 -0.0018,0.008 -0.006,-0.004 -0.01623,-0.005 -0.0063,0.005 -0.0067,0.009 0.0092,0.01 0.0028,0.007 0.0067,0.006 0.01517,0.007 -0.0039,0.0109 -0.01764,0.003 0.0099,0.0134 0.0081,0.004 0.0011,0.005 0.0021,0.003 -0.0042,0.0155 0.0074,0.005 -3.53e-4,0.009 -0.0127,0.009 -0.0067,0.004 -0.0099,-7e-4 -0.01693,-0.002 0.01446,0.004 0.0194,7e-4 0.0011,0.007 -0.0095,0.001 -0.0053,0.005 0.0049,0.004 0.0049,0.0152 -0.0095,0.0148 -0.0064,0.006 -0.0074,0.008 -0.0028,0.0145 0.0063,0.006 0.0018,0.009 0.0095,0.009 -0.0039,0.005 0.0011,0.007 7.06e-4,0.01 0.0085,7.1e-4 0.0071,-0.004 0.0021,-0.008 0.0039,0.002 -0.0046,0.007 0.0028,0.0176 -0.01164,0.008 0.0099,0.007 -0.0011,0.0116 0.01023,-0.005 0.0078,-0.008 -0.0039,0.005 -0.0035,0.0173 -0.0088,0.0138 0.01129,0.001 0.0078,-0.0131 -0.01482,0.0215 -0.0187,7.1e-4 -0.0067,0.0176 -0.0067,0.006 -0.0021,0.007 -0.0042,0.0102 0.0071,0.003 0.0032,0.008 -0.0032,0.0155 0.01693,0.006 -0.0011,0.0166 0.0127,0.01 0.0046,0.0141 -0.03598,0.005 -0.006,0.0187 0.01164,0.0162 -0.01129,0.0141 0.006,0.008 0.0021,0.01 0.01411,0.002 0.0095,-0.0106 -0.0021,-0.0109 0.01129,0.007 -0.0053,0.004 -7.06e-4,0.009 0.0025,0.0155 -7.06e-4,0.007 0.0078,0.003 0.01305,0.006 -0.01376,0.0102 -0.02328,0.0123 0.0056,0.007 3.53e-4,0.008 0.0092,0.0109 -0.0039,0.0307 -0.01341,0.0162 0.01976,0.0155 -0.0039,0.0166 0.01623,-3.6e-4 -0.0011,0.0162 0.0056,0.001 0.02293,0.001 -0.0039,0.007 -0.006,0.006 -0.0042,7e-4 -7.05e-4,0.004 -0.0067,0.003 -0.0056,0.0328 -0.0056,0.0138 0.01341,-0.001 0.02223,0.0102 -0.0046,-0.002 -0.0053,0.002 -0.0056,0.005 -3.52e-4,0.0141 0.0018,0.0148 0.01482,0.005 0.0078,-7.1e-4 -7.05e-4,0.009 -0.01129,0.0106 0.01588,0.019 -0.01164,0.0215 0.01588,0.002 -0.0056,0.01 -0.0018,0.0106 0.0018,0.0127 0.0021,0.0109 -0.0035,0.004 7.05e-4,0.006 -0.0018,-0.004 -0.02646,-7e-4 0.01164,0.0159 0.0025,0.018 -0.0088,0.0106 7.05e-4,0.005 -0.0014,0.006 -0.0035,0.004 -0.0021,0.006 -0.0042,0.007 0.01129,0.006 7.06e-4,0.004 0.0014,0.002 3.53e-4,0.006 -0.0014,0.006 0.0067,0.001 0.0088,0.01 0.0039,0.006 0.0088,7e-4 0.0011,-0.012 0.0063,-0.005 0.0063,-0.005 0.0039,0.0106 -0.0035,0.005 -0.0014,0.006 h 0.0071 l 0.0039,0.006 0.006,0.004 -0.0014,0.006 -0.0011,0.007 -0.0039,0.004 3.53e-4,0.0109 0.0042,0.004 -0.0032,0.004 -0.0032,-0.005 -0.0028,0.004 0.0039,0.005 -3.52e-4,0.003 0.0049,3.5e-4 0.0025,0.0145 0.0014,0.0145 0.0032,0.012 0.0046,0.002 0.0011,0.005 0.0046,0.01 -0.006,0.0106 0.0071,-0.002 -7.06e-4,0.01 0.0127,7e-4 -0.0018,0.008 0.0081,-0.006 -0.0056,0.01 0.0099,0.01 -0.01235,0.0123 7.05e-4,0.008 -0.0067,0.007 -0.0127,0.0127 0.01058,0.0134 -0.0187,0.004 -0.02258,0.001 -0.0042,0.0152 0.0067,0.006 0.01129,-0.0138 0.01729,0.012 0.0049,-0.002 0.0011,10e-4 -0.01693,0.0138 h -0.02399 l 0.0025,0.008 0.0039,0.004 -0.0049,0.002 0.0071,0.004 -0.0032,0.009 -0.0071,0.005 0.0025,0.008 7.05e-4,0.01 0.0064,0.007 -0.0032,0.0131 0.0049,0.0176 0.03034,0.0138 0.0074,-0.0282 0.0095,0.006 -0.0021,0.008 0.0021,0.0257 0.006,-0.0102 0.01058,0.008 0.0078,0.007 0.0081,0.0102 -0.01094,0.0102 -0.0081,-0.0109 -0.02328,0.0127 0.02364,0.001 0.01446,0.0162 0.01164,0.006 0.0127,0.005 -0.01129,0.0201 -7.05e-4,-0.0169 -0.006,0.0106 -0.0074,0.008 -0.01235,-0.002 0.0081,0.004 0.0078,0.0123 -0.01411,0.007 -0.0018,0.0152 -0.01658,-0.001 -0.0095,-0.009 -0.0056,-0.008 0.0021,0.008 -0.0035,0.002 0.006,0.006 -0.0011,0.01 0.01623,0.001 0.0067,-0.002 0.0063,0.005 0.0046,0.0148 -0.01164,0.004 -0.0056,0.006 -0.006,0.001 -0.0014,0.0109 0.0063,0.0106 -0.0039,0.005 0.01693,0.004 0.0071,0.007 0.0021,7.1e-4 -0.0053,0.009 0.01058,-0.009 -0.0042,0.0176 0.0071,0.0123 -0.0063,0.008 0.0095,0.007 0.0018,-0.007 0.01023,0.008 0.01517,7e-4 0.0032,0.0102 0.0067,-0.0102 -0.0021,0.018 -0.0194,0.0138 -0.006,0.0187 -0.0025,0.0113 -0.01058,0.001 0.0092,0.006 0.0078,0.006 -0.02152,0.009 -0.0046,0.0138 -0.0056,0.013 0.0028,0.0162 0.0085,0.003 0.0053,0.004 0.02963,0.01 -0.0127,0.006 -0.0081,0.008 -0.0067,0.001 -0.0028,0.005 -0.01517,0.002 -0.0021,0.007 -0.0032,0.005 -0.0063,0.0109 -0.01058,0.024 -0.0039,0.0166 -0.0067,0.012 -0.02187,0.0289 -0.01129,0.012 -0.01235,0.0113 -0.0822,0.0572 -0.01764,0.007 -0.01235,0.0106 -0.01764,0.002 -0.01834,0.007 -0.06632,0.006 -0.06209,-0.001 -0.04022,-0.007 -0.07267,-0.0222 -0.03105,-0.0145 -0.02646,-0.0176 -0.03105,-0.024 -0.01199,-0.0152 -0.01587,-0.013 -0.01517,-0.0194 -0.01376,-0.031 -0.0046,-0.007 -0.0025,-0.008 -0.0056,-0.0201 -0.01341,-0.0353 -0.0042,-0.0141 -0.0025,-0.019 -0.0046,-3.5e-4 -0.0049,-0.0325 -0.006,-0.0162 3.52e-4,-0.008 -0.0053,-0.003 -0.0025,-0.0183 -0.0028,-0.0187 -0.0011,-0.0205 -0.0042,-0.007 7.06e-4,-0.009 0.0028,-0.003 -0.0025,-0.003 -0.0025,-0.008 -7.05e-4,-0.0194 -0.0028,-0.0356 0.0014,-0.0279 -7.06e-4,-0.0247 -0.0042,-0.0137 0.0049,-0.008 -0.0063,-0.0187 0.0028,-0.0529 0.006,-0.0205 -0.0021,-0.0191 0.0021,-0.0162 -0.0025,-0.0374 0.0053,-0.0504 -0.0018,-0.008 0.0014,-0.008 -0.0021,-0.0176 0.0042,-0.0166 -0.0018,-0.0183 0.0018,-0.0381 -0.0032,-0.0378 0.0039,-0.0145 0.0014,-0.0201 v -0.0332 l 0.0018,-0.0325 v -0.0339 l 0.0032,-0.0377 -0.0018,-0.019 v -0.0201 l 0.0056,-0.0145 -7.05e-4,-0.0191 0.0039,-0.03 -0.0046,-0.0134 7.06e-4,-0.0166 0.0021,-0.0367 3.53e-4,-0.0392 7.06e-4,-0.0388 0.0046,-0.0377 -0.0021,-0.0176 0.0021,-0.0247 0.0074,-0.0356 -0.0011,-0.0194 -0.0046,-0.0162 0.006,-0.0145 -3.53e-4,-0.0205 -0.0025,-0.0381 -0.0014,-0.0381 -0.0025,-0.0381 0.0018,-0.019 0.0063,-0.0243 -0.0011,-0.0307 -0.0063,-0.0596 -0.0039,-0.0159 0.0014,-0.019 0.0018,-0.0381 0.0063,-0.0346 0.0011,-0.0289 0.0035,-0.0268 -0.0046,-0.0353 0.0046,-0.0152 -3.52e-4,-0.0194 -0.0032,-0.0166 -0.0081,-0.0152 v -0.0183 l 0.01411,-0.002 0.0025,-0.0413 0.0035,-0.01 -0.0067,-0.006 0.0032,-0.01 -7.05e-4,-0.0109 -0.0039,-0.0198 0.0039,-0.008 -0.0011,-0.002 -0.0021,-3.5e-4 0.0014,-0.0307 0.0011,-0.0296 v -0.0314 l 0.0014,-0.0381 0.0018,-0.0272 0.0014,-0.0162 -0.0053,-0.0166 0.0028,-0.0169 v -0.0194 l 0.0011,-0.0187 -0.0032,-0.0152 0.0014,-0.0402 -0.0021,-0.008 0.0039,-0.006 -0.0018,-0.0176 7.06e-4,-0.0183 -0.0039,-0.0159 0.0046,-0.0159 3.53e-4,-0.0201 0.0011,-0.0614 0.0021,-10e-4 -0.0014,-0.0356 -0.0021,-0.0392 3.53e-4,-0.0402 -0.0025,-0.018 0.0014,-0.0183 0.0011,-0.0367 v -0.0395 -0.0346 l -0.0011,-0.0413 -0.0018,-0.007 0.0028,-0.008 v -0.0197 l -0.0018,-0.0392 v -0.037 l 0.0025,-0.0162 -0.0025,-0.0342 0.0018,-0.0148 -0.0025,-0.0303 0.0032,-0.002 -0.0018,-0.0385 v -0.0384 l 0.0028,-0.0755 -0.0039,-0.0148 0.006,-0.0162 -0.0032,-0.0346 -3.53e-4,-0.0169 0.0025,-0.0102 0.0028,-0.0183 -0.0011,-0.0159 0.0011,-0.0176 -0.0018,-0.002 -0.0247,0.0106 -0.0042,0.005 -0.0053,0.003 -0.01517,0.006 -0.02187,0.0123 -0.02293,0.0155 -0.01446,0.007 -0.01411,0.01 -0.02752,0.019 -0.02928,0.019 -0.02223,0.0148 -0.01623,0.0148 -0.02681,0.0176 -0.02399,0.0198 -0.02469,0.0187 -0.01164,0.0106 -0.01129,0.0127 -0.01517,0.007 -0.01164,0.0131 -0.0314,0.0233 -0.02716,0.0226 -0.02611,0.0159 -0.01023,0.0131 -0.01976,0.0134 -0.02187,0.0187 -0.01623,0.0138 -0.01587,0.0109 -0.01658,0.009 -0.0088,0.012 -0.01376,0.008 -0.01341,0.009 -0.0088,0.0113 -0.01164,0.009 -0.01235,0.0106 -0.0088,-7.1e-4 -0.0039,0.007 -0.01199,0.01 -0.0063,0.006 -0.0088,0.002 -0.01058,0.0131 -0.02364,0.0208 -0.02505,0.0176 -0.0134,0.009 -0.01023,0.01 -0.0088,0.002 -0.0053,0.007 -0.02963,0.024 -0.01376,0.0137 -3.52e-4,-0.001 -0.0046,0.006 -0.01446,0.006 -0.01341,0.0113 7.06e-4,-0.001 -0.02611,0.019 -0.02434,0.0212 -0.02399,0.0173 -0.01199,0.0106 -0.01411,0.009 -0.05433,0.0455 -0.02893,0.0243 -0.01094,0.01 -0.0063,0.006 -0.0081,0.003 -0.0063,0.0148 -0.01058,0.003 -0.0078,0.005 -0.01129,0.0106 -0.01094,0.0127 -0.0127,0.008 -0.01129,0.01 -0.02646,0.0219 -0.02787,0.0222 -0.01729,0.0145 -0.0099,0.0127 -0.0095,7e-4 -0.0046,0.006 -0.01376,0.0106 -0.02893,0.0251 -0.01164,0.0113 -0.0071,0.004 -0.0046,0.006 -0.01411,0.0109 -0.01976,0.0183 -0.02187,0.0141 -0.02893,0.0261 -0.02611,0.0201 -0.02716,0.0233 -0.01729,0.01 -0.0042,0.007 -0.0085,0.002 -0.02752,0.0236 -0.05115,0.0406 -0.03387,0.0321 -0.03457,0.0215 -0.01411,0.0159 -0.05397,0.0437 -0.02787,0.0236 -0.02787,0.024 -0.01446,0.009 -0.01094,0.0109 -0.02752,0.024 -0.02364,0.0215 -0.04551,0.0363 -0.02081,0.0166 -7.05e-4,-0.003 -0.01517,0.0155 -0.01799,0.0127 -0.01164,0.009 -0.0099,0.0117 -0.02646,0.0176 -0.0085,0.0127 -0.01587,0.01 -0.01235,0.01 -0.0074,0.0134 -0.01623,0.006 -0.01341,0.012 -0.02469,0.0198 -0.0067,0.0141 -0.0134,0.0123 -0.02117,0.0236 -0.01482,0.009 -0.01058,0.0109 -0.02117,0.0219 -0.0194,0.024 -0.0049,0.0134 -0.01517,0.0134 -0.02258,0.0208 -0.01023,0.0113 -0.0127,0.007 -0.01905,0.0226 -0.01094,0.0123 -0.01094,0.009 -0.02152,0.0169 -0.02293,0.0141 -0.02364,0.0162 -0.04163,0.0353 -0.02646,0.0303 -0.01764,0.0134 -0.01058,0.0159 -0.0134,0.0152 -0.0127,0.008 -0.0046,0.006 -0.0014,0.008 -0.01764,0.0116 -0.01693,0.0257 -0.01588,0.0106 -0.01376,0.018 -0.02081,0.0222 -0.01199,0.009 -0.04551,0.0434 -0.03916,0.0564 -0.02928,0.0191 -0.01976,0.0233 -0.0074,0.0141 -0.01129,0.009 -0.0194,0.0247 -0.02293,0.024 -0.01094,0.009 -0.01058,0.0123 -0.0046,-0.002 -0.01587,0.0243 -0.01129,0.007 -0.0092,0.0106 -0.01764,0.0166 -0.02011,0.0261 -0.02364,0.0173 -0.0085,0.0131 -0.01094,0.0109 -0.02187,0.0233 -0.02046,0.0169 -0.02469,0.0229 -0.01094,0.012 -0.01235,0.009 -0.0085,0.0141 -0.0095,0.003 -0.0042,0.005 -0.0014,0.004 -0.0039,0.001 -0.0053,0.004 -0.01235,0.009 -0.01199,0.0219 -0.01376,0.0194 -0.02117,0.0282 -0.01411,0.0141 -0.01199,0.01 -0.0035,0.0152 -0.01623,0.0113 -0.0099,0.0134 -0.01482,0.006 -0.0092,0.0131 -0.01164,0.01 -0.0099,0.0102 -0.0078,0.0141 -0.0099,0.0152 -0.01058,0.008 -0.02858,0.0247 -0.02258,0.0198 -0.01976,0.0212 -0.0194,0.0247 -0.0039,0.006 -0.0056,0.004 -0.04269,0.0381 -0.02716,0.0247 -0.01129,0.01 -0.0092,0.0109 -0.01411,0.008 -0.0085,0.0117 -0.02011,0.0247 -0.0088,0.0127 -0.01764,0.0106 -0.01411,0.0138 -0.01693,0.0138 -0.0099,0.0113 -0.01305,0.008 -0.01164,0.008 -0.01588,0.002 -0.0056,0.006 -0.0063,0.004 -0.01199,0.01 -0.03916,3.5e-4 -0.01834,0.005 -0.01834,-0.005 -0.01693,0.005 -0.01834,-0.003 -0.01976,0.002 -0.0081,-0.004 -0.0085,0.002 -0.03845,-0.006 -0.01693,-0.007 -0.01905,-0.004 -0.01446,-0.008 -0.01764,-0.005 -0.06138,-0.0328 -0.02469,-0.0257 -0.02081,-0.0148 -0.01058,-0.0247 -0.01094,-0.0145 -0.01552,-0.036 -0.0071,-0.0176 -0.0092,-0.031 -0.0063,-0.0212 0.0018,-0.0236 -0.01023,-0.048 0.0088,-0.0427 0.0032,-0.0169 0.01693,-0.0367 0.02152,-0.0342 0.02646,-0.0346 0.04163,-0.0547 0.05609,-0.0674 0.02787,-0.0318 0.03175,-0.0342 0.06738,-0.0681 0.05609,-0.0561 0.0568,-0.0515 0.02857,-0.0254 0.0254,-0.0272 0.03104,-0.0243 0.01235,-0.0183 0.01517,-0.0148 0.06456,-0.0586 0.05997,-0.054 0.0321,-0.0321 0.0314,-0.0268 0.06068,-0.0621 0.02857,-0.0254 0.0088,-0.007 0.0074,-0.005 0.01164,-0.0152 0.01623,-0.0116 0.01729,-0.0176 0.01552,-0.0123 0.01587,-0.0159 0.03175,-0.0279 0.01023,-0.004 0.0028,-0.0102 0.02117,-0.0194 0.02469,-0.0201 0.02787,-0.0261 0.06562,-0.0547 0.03316,-0.0296 0.03457,-0.0272 0.01235,-0.0155 0.01976,-0.0131 0.03739,-0.0296 0.03034,-0.0251 0.03457,-0.0286 0.0085,-0.0102 0.03493,-0.0286 0.01517,-0.012 0.01658,-0.0123 0.01341,-0.0173 0.01834,-0.0102 0.07655,-0.0663 0.06456,-0.0547 0.03034,-0.0247 0.0187,-0.0113 0.01482,-0.008 0.01411,-0.0236 0.02117,-0.0131 0.06844,-0.0579 0.03104,-0.0289 0.01341,-0.0162 0.01094,-0.0159 0.0314,-0.0141 0.02187,-0.0208 0.04233,-0.0406 0.01164,0.005 0.02999,-0.0346 0.04057,-0.0275 0.05186,-0.0423 0.05468,-0.0476 0.01658,-0.0106 0.01482,-0.0152 0.03669,-0.0293 0.06632,-0.0543 0.06844,-0.054 0.03245,-0.024 0.0254,-0.0268 0.02963,-0.0233 0.03175,-0.0215 0.02646,-0.0254 0.0321,-0.0212 0.01552,-0.0159 0.02046,-0.0102 0.01411,-0.0145 0.01623,-0.0138 0.0127,-0.0166 0.01729,-0.012 0.03281,-0.024 v -0.006 l 0.01482,-0.01 0.01905,-0.007 0.02752,-0.0205 0.02716,-0.0198 0.01552,-0.009 0.0095,-0.0134 0.0014,0.006 0.01023,-0.0106 0.01411,-0.008 0.01058,-0.008 0.03175,-0.0183 0.01023,-0.0123 0.01199,-0.01 0.02469,-0.0194 0.0074,-3.5e-4 0.0039,-0.007 0.01764,-0.007 0.0099,-0.013 0.01129,-0.01 0.02575,-0.0173 0.02575,-0.0134 0.0088,-0.0106 0.01094,-0.007 0.0095,-0.0106 0.01235,-0.006 -3.53e-4,-0.003 0.04339,-0.0286 0.04375,-0.0335 0.03069,-0.0247 0.02046,-0.0106 0.01623,-0.0116 0.01482,-0.0123 0.01764,-0.008 0.0127,-0.0148 0.01552,-0.0134 0.01976,-0.0134 0.02469,-0.0127 0.02046,-0.0176 0.01799,-0.0162 0.01587,-0.004 0.0127,-0.0106 0.01411,-0.013 0.01693,-0.009 0.01129,-0.0148 0.01552,-0.0106 0.03069,-0.0176 0.01376,-0.0109 0.01164,-0.0138 0.0829,-0.0589 0.06985,-0.0564 0.06421,-0.048 0.01764,-0.0134 0.0092,-0.006 0.0063,-0.008 0.01799,-0.0113 0.01623,-0.0127 0.03175,-0.0236 0.08537,-0.0561 -0.0025,-0.001 0.0063,-0.003 0.02681,-0.0215 0.02611,-0.0197 0.03422,-0.0229 0.02893,-0.0265 0.01834,-0.0102 0.01729,-0.0106 0.01658,-0.0109 0.02469,-0.0116 v -0.004 l -0.0018,-7e-4 v -0.008 l 0.0011,-0.0113 3.53e-4,-0.0155 0.0021,-0.0183 7.05e-4,-0.009 0.0046,-0.004 3.52e-4,-0.01 0.0021,-0.0106 -3.53e-4,-0.0123 -0.006,-0.009 -7.06e-4,-0.0169 0.0095,-0.008 -0.0078,-0.0145 -0.0011,-0.0233 0.0032,-0.0106 -0.0056,-0.008 0.0025,-0.0215 0.0014,-0.007 0.0014,-0.012 -0.0046,-0.0448 -0.0127,-0.0392 -0.0074,-7.1e-4 -0.01764,0.005 -0.01164,0.0162 -0.02081,0.009 -0.01623,0.0113 -0.02011,0.0102 -0.0088,0.0176 -0.02434,0.005 -0.01305,0.0145 -0.0085,0.005 -0.0053,0.008 -0.02081,0.006 -0.0046,0.008 -0.01164,0.002 -0.02258,0.0134 -0.02752,0.008 h -0.03316 l -0.0078,0.01 -0.01411,0.002 0.0046,0.01 -0.0187,0.001 -0.02364,0.01 -0.02222,0.008 0.01905,0.007 -0.02434,0.002 -0.01517,0.003 -0.01482,-0.004 -0.0085,-7e-4 -0.0042,-0.006 -0.01164,-0.002 -0.0025,0.007 -0.006,0.002 -0.01623,0.004 -0.04445,0.0109 -0.04833,0.005 -0.02081,0.005 -0.02434,-7e-4 -3.52e-4,0.003 -0.03986,0.001 3.52e-4,0.004 -0.0071,0.001 -3.53e-4,-0.004 -0.02081,0.001 -0.01729,-0.003 -0.02081,0.001 -0.0194,-0.004 -0.0194,-0.008 -0.02364,-0.002 -0.01764,-0.005 -0.0194,-0.005 7.05e-4,0.007 -0.01023,-0.0109 -0.01199,-0.009 -0.03387,-0.0141 -0.0508,-0.0328 -0.0032,0.005 -0.0042,-0.01 -0.02999,-0.0265 -0.0321,-0.036 -0.01482,-0.0152 -0.0056,-0.0208 -0.01164,-0.0162 -0.0085,-0.0197 -0.0095,-0.0289 -0.0081,-0.031 -0.0067,-0.0152 -0.0011,-0.0169 -0.0127,-0.061 -0.0014,-0.0282 -0.0039,-0.031 -0.0042,-0.0265 0.0049,-0.001 -0.0021,-0.0339 c 0.0021,-0.0339 -0.0039,-0.0646 0,-0.0935 l -0.0011,-0.0501 0.0025,-0.0226 0.0011,-0.0797 c -0.0018,-0.0335 0.0011,-0.066 0.0011,-0.0991 l -0.0035,-0.0236 -0.01058,-0.019 0.0014,-0.0459 0.0021,-0.0233 -3.53e-4,-0.0243 0.0056,-0.0212 0.0071,-0.0226 0.0078,-0.0201 0.0011,-0.0257 0.0028,-0.0769 0.0042,-0.0748 0.0018,-0.0385 -0.0011,-0.008 0.0049,-0.005 -3.52e-4,-0.0155 0.0018,-0.007 3.52e-4,-0.01 7.06e-4,-0.0183 0.01164,-0.0226 -0.0014,-0.0275 0.0032,-0.0194 0.0081,-0.0342 -0.0032,-0.0102 0.0039,-0.0145 0.0064,-0.0296 0.01058,-0.0632 0.0085,-0.0335 0.0085,-0.0335 0.01023,-0.0328 0.0088,-0.0296 0.006,-0.0254 0.0067,-0.0215 0.0039,-0.0106 0.0095,-0.0127 0.0025,-0.0173 0.0071,-0.0148 0.0046,-0.0152 0.0127,-0.0335 0.0074,-0.0134 0.0053,-0.0159 0.0067,-0.0138 0.0067,-0.0138 0.0081,-0.013 0.0053,-0.006 0.0018,-0.006 0.0053,-0.005 7.05e-4,-0.009 0.0085,-0.0131 0.01094,-0.0148 0.0046,-0.0134 0.0039,7e-4 0.0071,-0.0208 0.01552,-0.0194 0.01199,-0.018 0.0067,-0.007 0.0035,-0.007 0.0078,-0.0134 0.0187,-0.0229 0.02328,-0.0339 0.0095,-0.0198 0.0078,-0.006 0.0056,-0.0102 0.0187,-0.0215 0.0095,-0.012 0.0049,-0.007 0.0067,-0.003 0.0067,-0.0141 0.0092,-0.013 0.02223,-0.0205 0.04868,-0.0413 0.05327,-0.0378 0.01729,-0.0162 0.01129,-0.003 0.0063,-0.005 0.0095,-0.005 0.0081,-0.004 0.0071,-0.005 0.01305,-0.0123 0.01341,-0.0113 0.01129,-0.008 0.02716,-0.0116 0.01588,-0.007 0.01693,-0.004 0.01376,-0.007 0.01552,-0.006 0.03069,-0.009 0.03422,-0.007 0.01199,-0.006 0.01834,-0.004 0.01905,-0.001 0.01658,-0.004 0.0187,0.002 0.01552,0.004 0.01482,0.002 0.01482,0.006 0.01623,0.004 0.01658,0.006 0.0092,0.0127 0.01023,0.0102 0.0078,0.0138 -0.0014,0.0145 0.0028,-0.002 0.0035,0.0176 0.0039,0.0141 -0.0025,0.0353 -0.0078,0.0261 -0.006,0.007 0.0092,0.0159 -0.01517,0.0363 3.53e-4,0.0141 -0.0071,0.012 -0.0028,0.0275 -0.01588,0.0166 -0.0092,0.009 -0.0021,0.0106 -3.53e-4,0.0127 -0.01446,0.005 -0.0053,0.0138 -0.0042,0.012 -0.01482,0.0222 -0.01446,0.0102 -0.0127,0.0127 -0.01658,0.007 7.06e-4,0.005 h -0.0028 l -0.0025,0.005 -0.02575,0.0272 -0.01164,0.0384 -0.0081,-7.1e-4 -0.02223,0.0251 -0.0014,-0.002 -0.01305,0.018 -0.0063,0.0173 -0.0049,0.0229 0.0018,3.5e-4 -0.01235,0.0198 -0.01588,0.007 -0.0099,0.0236 -0.0021,0.0169 -0.01094,0.0169 -0.01658,0.042 -0.0092,0.0444 -0.02752,0.0349 -0.01446,0.0353 -0.01094,0.0438 -0.0095,0.0399 -0.0081,0.0176 -0.0039,0.0183 -0.0042,0.0159 -0.0021,0.0194 -0.01446,0.0293 -0.0063,0.0187 -0.0025,0.0557 -0.0032,0.0215 0.0025,0.0208 -0.0018,0.008 0.0049,0.006 0.0095,0.0155 0.0088,0.0406 -0.01341,0.0332 -0.0028,0.0141 -0.0063,0.0106 -3.53e-4,0.0279 -0.0032,0.0173 0.0021,0.0219 -0.0063,0.0385 -0.0081,0.0773 0.0025,0.0392 -0.0085,0.0328 -0.0088,0.0127 v 0.0201 l 0.0032,0.0187 0.0067,0.0314 -0.0063,0.0134 0.0099,0.0124 -0.0039,0.0134 v 0.0734 l 0.01693,0.0755 0.0099,0.0123 0.006,0.0215 0.01658,0.0328 0.02787,0.0286 0.01764,0.012 0.02152,0.008 0.01764,0.006 0.01764,-7.1e-4 0.03739,-0.002 0.06209,-0.0134 0.01764,-0.01 0.01976,-0.006 0.01764,-0.009 0.01446,-0.006 0.01235,-0.01 0.01482,-0.0102 0.0085,-0.004 0.0042,-0.006 0.0099,-0.012 0.0046,0.002 0.01764,-0.0155 0.03563,-0.042 0.0194,-0.0222 c 0.03105,-0.0392 0.04339,-0.0822 0.05539,-0.12946 l 0.0078,-0.0381 0.0049,-0.0159 0.0014,-0.0187 0.01199,-0.0773 0.0063,-0.0395 0.0053,-0.0434 0.0074,-0.0141 v -0.019 l 0.0063,-0.0589 0.0028,-0.0339 0.0021,-0.0325 0.0046,7.1e-4 v -0.0349 l 0.0039,-0.031 0.0067,-0.0363 0.0039,-0.0388 3.53e-4,-0.01 0.0035,-0.006 v -0.0226 l 0.0042,-0.0444 0.0046,-0.0423 -0.0011,-0.0444 -0.0014,-0.018 0.0067,-0.005 -3.52e-4,-0.008 -7.06e-4,-0.0381 -0.01094,-0.004 0.0039,-0.0159 0.01658,-0.008 -7.06e-4,-0.0279 0.006,-0.0289 0.0021,-0.0342 0.0014,-0.0349 0.0018,-0.0201 0.0032,-0.0208 0.0018,-0.019 0.0025,-0.0184 0.0028,-0.0462 0.0032,-0.018 -7.06e-4,-0.0198 0.0046,-0.037 0.0018,-0.0395 0.0018,-0.0441 0.0014,-0.0191 0.0025,-0.009 -0.0039,-0.007 0.0056,-0.0176 0.0021,-0.0187 -3.52e-4,-0.0413 0.0021,-0.0145 -0.0025,-0.007 0.0035,-0.008 0.0053,-0.0356 7.06e-4,-0.0261 -7.06e-4,-0.0265 0.0039,-0.048 0.0039,-0.0399 0.0042,-0.0176 -7.06e-4,-0.0261 0.0078,-0.0388 0.0018,-0.0374 0.0053,-0.0173 0.0042,-0.0183 0.01693,-0.036 0.0056,-0.006 -3.53e-4,-0.009 0.01199,-0.0134 -0.0014,-0.006 0.0053,-0.001 0.02011,-0.0247 0.02011,-0.0198 0.02258,-0.0159 0.02187,-0.0155 0.0067,-0.005 0.01905,-0.004 0.0025,-0.008 0.01905,-0.003 0.01482,-0.006 0.02893,-0.0134 0.08396,-0.008 h 0.04727 l 0.04374,0.0116 0.06562,0.037 0.02152,0.0236 0.0099,0.0134 0.01094,0.012 0.01164,0.0282 0.0018,0.0123 0.01764,0.003 -0.0039,0.004 -0.01623,0.006 0.01058,0.0127 -0.0063,0.0145 -0.0011,0.0176 -7.05e-4,0.0198 -0.0032,0.0183 0.0032,0.0152 0.0056,0.0138 -0.0071,0.009 v 0.0159 l 0.0035,0.0272 0.01305,0.0109 -0.0049,0.012 -0.0134,0.004 0.0011,0.019 0.0053,0.0145 0.0028,0.0162 -0.0088,0.018 -0.0056,0.0353 -7.05e-4,0.0197 0.0046,0.0141 -0.0067,0.0131 0.0099,0.0155 -0.01482,0.0279 0.0042,0.0137 0.0039,0.0159 v 0.0166 l 0.0056,0.0176 -0.0039,0.0166 3.53e-4,0.008 -0.0074,0.004 0.0018,0.0113 3.53e-4,0.0169 -0.0095,-0.005 -0.0053,0.0113 0.0071,0.0222 -0.0078,-0.004 -0.0021,0.0222 -0.0014,0.0201 0.0127,-0.005 -0.01588,0.0194 -0.0014,0.0466 -0.0021,0.0254 -0.0053,0.0236 0.0042,0.0201 -0.0095,0.0173 0.0078,0.008 -0.0035,0.01 -0.0021,0.0258 -0.0021,0.054 -0.0011,0.0275 -0.0042,0.0289 c -0.0018,0.0349 -0.0025,0.0691 -0.0042,0.10443 -0.0021,0.0385 -0.01023,0.0769 -0.01094,0.11571 l -0.0039,0.03 -0.0011,0.0378 -0.0032,0.0349 -3.53e-4,0.0257 v 7e-4 l -0.006,0.008 -3.53e-4,0.0127 -0.0018,0.0257 -0.0042,0.0522 -0.0042,0.055 -0.0011,0.0251 0.0018,0.0148 -0.0092,0.0332 -0.0035,0.0349 -3.53e-4,0.0381 -0.0018,0.0183 0.01376,0.003 -0.0092,0.008 -0.0067,0.0148 v 0.0194 l -0.0035,0.0498 -0.0046,0.0229 -0.0014,0.0123 0.0071,0.005 -0.0063,0.009 -7.05e-4,0.0127 -0.0011,0.0243 7.06e-4,0.0264 0.01199,0.0173 -3.52e-4,0.0145 0.0028,0.006 -0.0014,0.008 -0.0039,0.0134 0.006,0.0145 -0.01129,0.0286 -0.0046,0.0134 0.01023,0.0123 -0.01023,3.5e-4 0.0046,0.0332 v 0.0155 l -0.0071,0.0282 0.0081,0.0219 -0.0014,0.008 0.0035,0.004 -0.0025,0.012 -3.53e-4,0.0134 -0.0078,0.009 0.0035,0.007 3.53e-4,0.008 -0.0049,0.0166 -0.0039,0.0353 -0.0049,0.036 0.0035,0.0328 0.0021,0.0328 -0.0028,0.0335 0.0028,0.0145 -0.0039,0.0159 7.06e-4,0.0162 -0.0046,0.0127 0.0056,0.0286 h 7.06e-4 l 0.0321,-0.0102 0.01235,-0.009 0.0056,-0.007 0.0067,-0.003 0.0095,-0.0109 0.0092,-0.004 0.0067,-0.007 0.01305,-0.01 0.01341,-0.008 0.0095,-0.008 0.01482,-0.007 0.02963,-0.018 0.0127,-0.008 0.01552,-0.0106 0.0321,-0.0187 0.02999,-0.0169 0.02011,-0.0106 0.0134,-0.0116 0.01693,-0.004 0.01587,-0.013 0.09243,-0.0603 c 0.05009,-0.0321 0.101248,-0.0614 0.150989,-0.0935 l 0.08149,-0.0522 0.0829,-0.0473 -0.0035,-0.002 0.02152,-0.0162 0.01729,-0.0141 0.01693,-0.006 0.01905,-0.0116 0.03034,-0.0201 0.03034,-0.0155 0.02963,-0.0229 v 7e-4 l 0.02399,-0.0134 0.0254,-0.0102 0.02999,-0.0201 0.02681,-0.0159 0.0088,-0.008 0.01658,-0.0145 0.02787,-0.0159 0.03281,-0.019 0.03281,-0.0123 0.03351,-0.0145 0.02752,-0.0169 0.0088,-0.0109 0.01482,-0.002 0.0254,-0.0205 0.0088,-0.006 v -0.007 l 0.01976,-0.0102 0.01376,0.008 0.01482,-0.007 0.01552,-0.008 0.01411,-0.008 0.02575,-0.0183 0.0088,-0.002 0.0039,-0.006 0.0081,-0.002 0.0056,-0.006 0.0078,-0.005 0.0074,7e-4 0.0095,-0.0127 0.01517,-0.005 0.01517,-0.009 0.01411,-0.007 0.01446,-0.0109 0.01517,-0.008 0.01376,-0.01 0.02081,-0.008 0.02258,-0.0152 0.06632,-0.0416 0.03105,-0.0215 0.01517,-0.002 0.01376,-0.009 0.0254,-0.0201 0.03175,-0.0141 0.05821,-0.03 0.02963,-0.018 0.03281,-0.0212 0.06809,-0.0367 0.06597,-0.0374 0.01376,-0.009 0.01658,-0.007 0.0056,-0.005 0.0071,0.002 0.01305,-0.0117 0.06209,-0.0342 0.06491,-0.0377 0.01799,-0.009 0.01764,-0.0127 0.02081,-0.0127 0.0095,-0.004 0.04304,-0.0254 0.01552,-0.008 0.01693,-0.004 -0.0025,-0.003 0.02611,-0.0166 0.06703,-0.036 0.01376,-0.007 0.01834,-0.0123 0.03422,-0.0162 c 0.04798,-0.024 0.09031,-0.055 0.13723,-0.0811 l 0.06315,-0.0314 0.04057,-0.0229 0.01517,-0.01 0.01446,-0.007 0.01341,-0.0113 0.01587,-0.008 0.02646,-0.0162 0.02505,-0.0176 0.03881,-0.024 0.01235,-0.004 0.02222,-0.0145 0.01376,-0.009 0.0095,-0.0162 -0.01376,-0.0176 -0.03316,-0.0169 -0.0127,-0.0116 -0.01552,-0.0106 -0.02152,-0.0254 -0.01305,-0.0159 -0.0071,-0.018 -0.006,-0.0166 -0.0095,-0.0106 -0.0074,-0.0155 -0.0014,-0.0194 -0.0067,-0.0349 -0.0032,-0.0399 7.05e-4,-0.0801 0.0025,-0.0381 -0.0046,-0.0184 0.0021,-0.0201 0.0018,-0.019 -0.0074,-0.0169 0.0056,-0.0261 0.0039,-0.025 0.0049,-0.007 0.0011,-0.009 0.0014,-0.0201 -7.06e-4,-0.0437 3.53e-4,-0.0388 0.0074,-0.0438 -0.0071,-0.0374 -0.0074,-0.0307 0.0081,-0.048 -0.0014,-0.0187 0.0063,-0.0166 0.0095,-0.0346 -3.52e-4,-0.01 -0.006,-0.005 -0.0025,-0.0233 -0.0018,-0.0102 -0.0053,-0.005 0.0053,-0.0205 0.01058,-0.0113 -0.0018,-0.0183 -0.0071,-7.1e-4 0.0014,-0.0194 0.0021,-0.009 0.0071,-0.002 0.0021,-0.018 0.0025,-0.0325 -7.05e-4,-0.0145 0.0053,-0.0847 v -0.0391 l 0.0025,-0.0371 -0.0025,-0.002 -0.0053,-0.006 0.006,-0.004 0.0018,-0.0176 0.0011,-0.0399 v -0.0917 l -0.0035,-0.0818 -7.06e-4,-0.0183 0.0011,-0.006 -0.0074,-0.005 -0.0063,-0.0145 -0.0095,-0.0166 -0.05927,-0.0395 -0.03775,-7.1e-4 -0.006,-0.005 -0.0074,0.003 -0.006,-0.005 -0.01094,-0.002 -0.01693,0.007 -0.02999,0.003 -0.02999,0.0166 -0.0194,0.007 -0.01341,0.0127 -0.02011,0.006 -0.01023,0.008 -0.02716,0.0261 -0.01623,0.006 -0.0127,0.01 -0.0095,0.012 -0.0056,0.012 -0.0018,0.012 -0.0254,0.0145 -0.0095,0.036 -0.0134,0.009 -0.01446,0.0106 -0.02928,0.0261 -0.01587,0.0183 -0.01164,0.003 -0.0032,-0.008 -0.0085,0.002 0.01094,0.0141 -0.0071,0.0342 -0.02752,0.0183 -0.01588,0.008 -0.0032,0.0138 -0.0032,0.037 -0.0063,0.0162 -0.0032,0.0169 -0.0046,0.002 7.05e-4,0.005 -0.0018,0.009 -0.01094,-0.002 -0.0039,0.007 0.0028,0.0148 -7.05e-4,0.0187 v 0.0205 l -0.0014,0.0106 -0.0049,0.006 0.0053,0.0166 -0.01023,0.012 -0.0095,0.0194 0.0194,0.007 -0.01023,0.0173 -0.0071,0.007 -0.01058,-0.001 -0.01341,-0.012 0.0046,0.0141 -0.0067,0.003 -0.0042,0.006 0.01764,0.0166 0.01341,0.004 -0.01164,0.008 -0.0067,0.0127 0.0074,0.0113 -0.02399,0.012 0.01905,0.003 0.01129,0.0109 -0.02963,0.004 -0.01764,0.0197 0.0063,0.0145 -7.06e-4,0.0176 0.0074,0.0127 -0.0049,0.0141 0.0127,0.0131 0.0056,0.0113 0.0028,0.0226 -0.01552,0.0212 h -0.01376 l 0.0042,0.004 -0.02328,0.0162 0.01235,0.0191 -0.0042,0.005 -0.01588,-0.005 v 0.0162 l 0.0028,0.001 -0.0042,0.0138 0.0074,0.008 0.02152,0.0219 0.0074,0.004 -0.0032,0.006 0.0056,0.0152 -0.01058,0.008 0.0067,0.0113 0.0021,0.0159 -0.0046,0.0134 0.01058,0.005 3.53e-4,0.0113 -0.01552,0.007 -0.01623,0.003 -0.0035,-0.0258 -0.0028,0.0131 -0.0018,0.0123 0.0042,0.009 -0.01058,0.0176 -0.0056,0.0205 0.0078,0.006 0.0085,0.008 0.0046,0.0159 -0.01446,-7.1e-4 -0.0071,0.007 3.53e-4,0.0131 -0.0028,0.009 0.0011,0.03 -0.0011,0.0325 -0.0014,0.0399 7.05e-4,0.0201 -0.0056,0.0183 0.01235,0.009 -0.01058,0.0138 0.01023,0.006 0.01164,-0.0109 0.0018,0.003 0.0011,-0.002 0.0078,7.1e-4 -0.0092,0.0261 -0.01693,0.0113 0.0078,0.0131 -0.0085,0.006 0.0011,0.0159 0.0099,0.0159 0.0074,0.004 3.53e-4,0.0102 -0.0254,0.005 0.02293,0.0102 0.0078,0.007 0.0063,0.0173 -0.01623,0.0236 -0.0014,0.007 0.0035,0.007 -0.0049,0.0166 -0.01058,0.0159 0.0053,0.005 0.0018,0.008 0.0049,0.018 -0.0014,0.012 -0.0187,-0.0258 0.0074,0.0279 0.0046,0.0247 0.0127,0.0176 -0.0018,0.0268 -0.01552,0.007 0.0025,0.01 -0.0099,0.007 -0.01164,0.012 -0.01058,0.0152 -7.06e-4,0.0109 -0.006,0.006 -0.0014,0.0106 -0.0039,0.009 0.0039,0.0123 -0.01023,0.003 -0.0035,0.008 -0.0053,0.003 -7.06e-4,0.01 0.0021,0.01 -0.0011,0.0233 -0.02434,0.0198 0.0039,-7.1e-4 -0.01623,0.003 -0.0025,0.001 -0.01235,0.019 -0.0078,0.007 -0.0046,0.008 -0.01023,0.003 -0.0078,0.006 -0.01623,0.0106 -0.01199,0.01 -0.0314,0.0127 -0.01058,0.008 -0.01058,0.002 -0.01623,0.0127 -0.02046,0.008 -0.01729,0.0109 -0.04798,0.0198 -0.05221,0.008 -0.04692,-0.002 -0.0099,0.002 -0.0127,-0.002 -0.02293,-0.005 -0.04374,-0.0233 -0.03175,-0.0321 -0.0078,-0.0226 -0.0063,-0.0116 v -0.006 l -0.0046,-0.004 -0.0085,-0.0483 3.53e-4,-0.0219 -0.0025,-0.0201 0.0021,-0.0272 0.0025,-0.01 -0.0035,-0.0166 0.0014,-0.0183 0.0028,-0.0296 0.0025,-0.0258 -0.0014,-0.0127 -0.0039,-0.01 0.0042,-0.0233 0.0021,-0.0247 0.0032,-0.0554 0.0021,-0.0243 -7.05e-4,-0.0183 0.0028,-0.0169 v -0.0286 l -0.0042,-0.002 0.0053,-0.0279 0.0011,-0.0307 0.0025,-0.004 -0.0032,-0.002 0.0028,-0.0191 0.0011,-0.018 0.0018,-0.0349 0.0014,-0.0363 0.0018,-0.0131 0.0025,-0.0148 -0.0011,-0.0543 0.0021,-0.0533 0.0014,-0.0243 -3.53e-4,-0.0321 0.0046,-0.01 -0.0056,-0.007 0.0056,-0.0205 0.0014,-0.0159 0.0056,-0.031 -0.0018,-0.0159 -0.0025,-0.0286 0.0014,-0.0279 -0.0014,-0.0254 0.0056,-0.0243 v -0.004 l -3.53e-4,-0.0106 0.0025,-0.0529 0.0021,-0.0512 0.0028,-0.0512 -0.0011,-0.0116 0.0025,-0.012 -0.0035,-0.0102 0.0025,-0.01 0.0028,-0.0494 0.0025,-0.0501 0.0028,-0.0526 0.0035,-0.0681 0.0074,-0.0818 0.0018,-0.0406 0.0056,-0.0434 0.02328,-0.0709 0.01235,-0.0335 0.01623,-0.0324 0.01552,-0.0293 0.0187,-0.0268 0.02046,-0.0282 0.02893,-0.0317 0.01764,-0.0159 0.0099,-0.004 0.0046,-0.006 0.0088,-0.002 0.0039,-0.006 0.01834,-0.0131 0.03422,-0.0183 0.03457,-0.0201 0.01023,-0.003 0.01729,-0.005 0.03704,-0.0131 0.08255,-0.0106 0.03986,0.004 0.03986,7e-4 0.01164,-0.0109 0.01482,-0.008 0.03775,-0.002 0.01552,-0.001 0.01305,0.01 0.01058,0.012 0.02646,-0.002 0.01729,0.005 0.01623,0.004 0.03281,-0.003 h 0.02046 l 0.01623,-0.006 0.01587,-0.0102 0.01764,-0.005 0.03034,-0.0152 0.02787,-0.0198 0.01058,-0.012 0.0127,-0.008 0.02505,-0.0194 0.0127,-0.024 0.0127,-0.006 0.0085,-0.01 -0.0014,-0.004 0.0448,-0.0487 0.01623,-0.0106 0.01235,-0.0113 0.02011,-0.024 0.02716,-0.0272 0.01658,-0.0145 0.0071,-0.0159 0.02752,-0.0183 0.03104,-0.0183 0.06315,-0.0377 0.03351,-0.0169 0.02399,-0.0109 0.01482,-0.0106 0.03281,-0.0102 0.01905,-0.007 0.02081,-0.003 0.01199,-0.003 h 0.0085 l 0.01446,-0.006 0.04022,-0.008 0.04057,-3.5e-4 0.04339,0.004 0.03634,0.007 0.0695,0.0268 0.01482,0.0131 0.01517,0.0138 0.02046,0.0236 0.01517,-0.008 -0.0039,0.0141 0.0046,0.0123 0.01199,0.0138 0.0056,0.0138 0.0042,0.0282 0.01341,-0.006 -0.0046,0.0162 0.0063,0.0321 0.0011,0.0173 0.0187,0.005 0.01517,0.0254 -0.02293,0.002 -0.0011,0.0406 0.01023,0.0138 0.01129,0.0215 h 0.0187 l -0.0039,0.008 -0.0085,0.0134 -7.05e-4,0.0236 0.0049,0.0127 0.0071,0.006 0.0063,0.001 -0.0025,0.007 -0.01023,7.1e-4 -0.0056,0.004 -0.0074,10e-4 -0.0081,-0.002 -0.0088,0.0127 -0.0042,0.0392 v 0.0208 l 0.0071,0.0145 -7.05e-4,0.0134 -0.0063,0.008 0.0011,0.0173 0.01305,-0.006 0.02081,-0.0166 -0.0011,0.008 -0.0025,0.006 -0.0021,0.0159 -0.0014,0.0367 0.01588,0.007 -0.0053,0.012 -0.01305,-0.006 -0.0099,0.0106 0.0067,0.0113 0.0011,0.0145 -0.01164,0.006 0.01411,0.005 -0.0074,0.007 0.0032,0.012 -0.0046,0.007 0.0049,0.0159 0.0067,0.0198 0.01129,0.0169 -0.0039,0.004 -7.06e-4,0.007 -0.0099,-0.001 -0.01129,0.002 -0.01411,-0.002 -0.0025,0.0402 0.01658,0.0127 0.0092,0.01 -0.01552,0.009 -0.01023,0.0102 -7.05e-4,0.0205 0.0095,-7e-4 0.0011,0.007 0.01446,0.01 -0.0085,0.005 -0.01834,-7.1e-4 -0.0032,0.0286 0.0049,0.007 -0.0056,0.0166 7.06e-4,0.0473 -7.06e-4,0.0448 -0.0025,0.0423 0.0025,0.043 3.53e-4,0.0243 0.01235,0.009 0.0078,0.0148 -0.0021,0.0131 h -0.01834 l 0.0018,0.007 0.0028,0.005 -0.0039,0.007 v 0.008 l 0.0064,0.0152 0.0092,0.01 -0.01623,0.006 0.0039,0.01 -0.0049,0.0102 0.0011,0.0116 0.0032,0.0106 0.02152,0.008 0.0028,0.0148 -0.01235,0.0123 0.0039,0.012 0.0032,0.009 0.0049,0.0106 0.0053,0.008 0.0011,0.007 -0.006,0.008 -3.53e-4,-0.0138 -0.0081,0.008 -0.0049,0.012 -0.0032,0.0102 0.0067,0.012 -3.53e-4,0.0134 -0.0018,0.0303 -0.01164,-0.005 -0.0046,0.008 -3.53e-4,0.0173 0.0028,0.008 -0.0042,0.005 0.0127,0.003 0.0056,-0.0137 0.0078,0.0102 7.06e-4,0.007 v 0.008 l -0.01658,0.001 -0.0021,0.0106 0.01094,0.006 -0.01693,0.004 0.01164,0.0261 0.01411,0.005 -0.0053,0.0152 -0.01411,-0.004 -0.0039,0.0145 0.0067,0.0152 -0.0053,0.0152 -3.53e-4,0.012 0.0025,0.008 -0.0042,0.006 0.01376,0.005 0.01658,0.003 -0.0071,0.0247 -0.0011,0.0183 0.01482,0.001 0.0049,0.006 0.0078,0.002 0.0025,0.0152 -0.02258,0.0208 -0.0011,0.01 0.0049,0.005 -0.0071,0.002 0.0081,0.0113 0.01341,-0.006 0.01199,0.01 -7.06e-4,0.0117 7.06e-4,0.004 -0.0028,0.003 0.0039,0.0173 0.01199,0.004 -0.0025,0.008 -0.0032,0.006 0.0099,0.007 0.02222,0.004 0.01164,0.025 0.02293,0.013 -7.06e-4,0.005 0.02081,0.006 0.02364,0.002 0.06773,-0.0191 0.0321,-0.0113 0.02857,-0.0127 0.01411,-0.004 0.02928,-0.0152 0.02928,-0.0134 0.01376,-0.007 0.0187,-0.009 0.0046,-0.001 0.0011,-0.004 0.0085,-0.001 0.01129,-0.007 0.01341,-0.006 0.0049,0.003 3.52e-4,-0.006 0.02223,-0.0102 0.01164,-0.004 0.0095,-0.008 0.02258,-0.0123 0.0074,7.1e-4 0.01446,-0.0127 0.0127,-0.004 0.0071,-0.008 0.01235,-0.003 0.03634,-0.0201 0.0254,-0.0148 0.02646,-0.0152 0.02611,-0.0155 0.0032,0.002 0.02011,-0.013 0.0074,0.004 0.0053,-0.004 0.01023,-0.01 0.02928,-0.0166 0.06174,-0.0258 0.0099,-0.006 0.03351,-0.01 0.03457,-0.007 0.01799,-0.004 0.0081,-0.004 0.0071,0.003 0.01517,-0.001 0.01058,0.002 0.05574,-0.004 0.02505,0.004 0.02046,0.006 0.02223,0.003 0.02328,0.006 0.02328,7.1e-4 0.02223,0.002 -0.0078,-0.0113 h 0.01446 l 0.0088,0.0155 0.02046,0.009 -0.0056,-0.009 0.01587,0.007 0.01058,0.0113 0.0025,0.008 0.0071,0.004 0.0074,0.007 0.01023,0.0127 0.0081,0.0141 0.006,0.0138 0.0085,0.0127 0.01164,0.01 0.0081,0.0141 0.0028,0.0159 0.0046,0.006 -3.53e-4,0.008 0.01058,0.01 -0.0074,0.0138 0.01199,0.009 0.0063,0.005 -0.0032,0.007 -7.05e-4,0.007 m -7.098947,0.75212 0.0063,-0.006 0.02611,-0.005 0.02752,-0.005 0.05891,-0.004 0.02399,-0.007 0.01658,-0.003 0.01376,-0.004 0.03669,-0.0152 0.03563,-0.01 0.01623,-0.0145 0.02716,-0.007 0.02858,-0.004 -0.0025,-0.006 -0.0134,0.004 0.02011,-0.0109 7.06e-4,-0.004 0.0081,-0.003 0.02505,3.5e-4 0.01517,-0.0159 0.01235,-0.007 0.0134,-0.005 0.0088,-0.002 0.0056,-0.002 0.0056,0.004 0.01587,-0.009 -0.0078,-0.006 0.01164,-0.005 0.0021,-0.005 h 0.0018 l 0.0046,0.0109 0.0099,-0.004 0.0011,-0.006 -0.0011,-0.007 0.01411,0.003 0.01623,-0.005 0.0025,-0.005 0.0035,-0.001 0.0078,-0.003 0.01446,-0.004 0.01729,-0.004 0.01834,-0.003 0.01623,-0.001 0.01058,3.5e-4 0.006,-0.001 0.03704,0.008 0.0187,0.005 0.01411,0.009 0.02223,0.0194 0.01094,0.0127 0.0025,0.009 0.0046,0.007 0.0081,0.0127 0.01058,0.0102 0.0014,0.0159 0.0042,0.006 7.05e-4,0.009 0.0078,0.013 0.0049,0.005 -0.0018,0.003 0.0018,0.004 0.0039,0.002 -7.06e-4,0.004 0.0053,0.005 0.0071,0.0141 h 0.0028 l -0.0042,0.013 0.0074,0.0152 -0.0046,0.0205 -0.0032,0.0194 0.0021,0.0385 -0.0081,0.0317 -0.0071,0.012 -0.0049,0.0141 -0.01164,0.008 -0.0078,0.013 -0.01094,0.0268 -0.03739,0.0381 -0.01199,0.006 -0.0046,0.006 -0.006,0.002 -0.0187,0.019 -0.02646,0.0166 -0.01446,0.008 -0.01129,0.0116 -0.0071,0.003 -0.0046,0.005 -0.01164,0.0109 -0.02293,0.0208 -0.02293,0.0123 -0.01623,0.0155 -0.01799,0.0127 0.0014,0.002 -0.01023,0.006 -0.0063,0.007 -0.0053,0.006 h -0.0092 l -0.0071,0.008 -0.0049,0.006 -0.01199,0.0123 -0.0127,0.008 0.0028,0.002 -7.06e-4,0.001 -0.01094,0.002 -0.0063,0.006 -0.01199,0.0162 -0.02011,0.0293 -0.02011,0.0265 -0.02046,0.025 -0.02081,0.0286 -0.01023,0.0152 -0.0049,0.0159 -0.01376,0.0169 -0.0099,0.0198 -0.006,0.0233 0.0071,0.0194 -0.02223,0.018 -0.0039,0.0162 0.01199,0.008 -0.01376,0.006 -0.0032,0.0183 0.0021,0.0191 3.53e-4,0.0166 -0.01799,0.0176 -0.0011,0.0176 -0.0071,0.0152 0.0021,0.0176 0.0025,0.0176 0.0063,0.0152 -0.0039,0.008 -0.0074,-3.5e-4 -0.01058,0.007 -0.01235,0.008 0.0056,0.0187 -0.0042,0.009 -0.0039,0.01 0.0032,0.0166 -0.0039,0.0201 -0.0018,0.0183 -0.0039,-0.002 0.0039,0.007 -0.0042,0.008 0.0063,0.004 -0.0053,0.031 -0.0018,0.0367 0.0025,0.0162 0.006,0.0124 -0.01023,0.0272 -0.0021,0.0367 -0.0039,0.0275 0.0049,0.0187 -0.0056,0.0187 -0.0011,0.0392 -0.0032,0.0392 0.0011,0.0176 -3.52e-4,0.0197 -0.0025,0.0191 0.0011,0.0176 7.06e-4,0.013 -0.0039,0.0173 -7.05e-4,0.0219 -0.0011,0.0462 -0.0014,0.0349 v 0.0335 l 0.0063,0.006 -0.0078,0.008 0.0049,0.0247 0.0021,0.0257 -0.01023,0.019 -0.0028,0.0349 -0.0039,0.0138 0.0018,0.0176 -7.05e-4,0.036 -0.0032,0.0402 -0.006,0.0427 -0.0064,0.0233 -0.0039,0.0106 7.06e-4,0.01 -0.01446,0.0282 -0.01164,0.0286 -0.01587,0.0282 -0.01658,0.0296 -0.01058,0.0106 -0.0081,0.0116 -0.03351,0.0328 -0.0074,0.0102 -0.0035,0.0145 -0.01623,-0.002 -0.01199,0.0102 -0.01058,0.008 -0.01023,0.01 -0.01305,0.006 -0.01411,0.006 -0.0046,0.006 -0.0074,0.002 -0.006,0.005 -0.0074,0.002 -0.0127,0.009 -0.02716,0.0162 -0.03316,0.0116 -0.01411,0.003 -0.02152,0.008 -0.02963,0.0113 h -0.01693 l -0.0053,0.004 -0.0067,0.002 -0.03563,0.002 -0.02787,-0.003 -0.01834,-0.007 -0.01764,-0.008 v -0.01 l -0.0056,-3.5e-4 -0.0095,-0.005 -0.0039,-0.003 -0.0011,-0.005 -0.0071,-0.008 -0.0071,-0.009 -0.01376,-0.0152 -0.0046,-0.0109 -0.0028,-0.012 -0.0078,-0.005 -0.0025,-0.01 -0.0053,-0.0152 -0.0025,-0.0162 -0.0056,-0.0134 -0.0032,-0.0374 -0.0014,-0.0399 0.0021,-0.0392 -7.06e-4,-0.0385 -0.0014,-0.0374 0.0032,-0.0194 -0.0081,-0.0208 0.0014,-0.0152 0.0018,-0.019 0.01164,-0.0296 0.0018,-0.0381 0.0042,-0.037 -0.0042,-0.0222 7.05e-4,-0.013 0.0035,-0.0317 7.06e-4,-7.1e-4 v -0.003 l -0.0028,-0.0388 -0.0053,-0.0148 -0.0056,-0.0138 0.0063,-0.0169 -7.05e-4,-0.0194 0.0025,-0.0205 7.06e-4,-0.018 0.0063,-0.0155 0.0042,-0.0166 0.0039,-0.007 -7.06e-4,-0.01 -0.0046,-0.0138 -0.0028,-0.0325 -0.0071,-0.0191 0.01164,-0.0148 0.0018,-0.0187 0.0011,-0.0466 -0.0018,-0.0183 7.06e-4,-0.0166 0.0018,-0.0332 0.01094,-0.0363 0.0092,-0.0162 0.0014,-0.01 0.0025,-0.008 -0.0028,-0.009 -3.53e-4,-0.0226 0.0056,-0.0272 7.05e-4,-0.0152 7.06e-4,-0.0205 0.0049,-0.042 0.0049,-0.0349 0.0014,-0.0392 -7.06e-4,-0.0399 0.0025,-0.0395 0.0039,-0.0363 0.0032,-0.0162 -0.0025,-0.0198 0.0046,-0.0702 0.0035,-0.0607 -7.06e-4,-0.024 -0.0042,-0.0198 0.0049,-0.0148 0.0014,-0.0166 0.0018,-0.0335 0.0039,-0.0663 0.01058,-0.0734 0.0099,-0.0441 0.01235,-0.0335 -3.53e-4,-0.0187 0.01305,-0.0325 0.01235,-0.0349 0.01376,-0.0279 0.0081,-0.0127 0.006,-0.004 0.0035,-0.006 0.01764,-0.0236 0.02293,-0.0233 0.04939,-0.0427 0.006,-0.005 0.0088,-0.004 0.01305,-0.008 0.0127,-0.0109 0.01658,-0.007 0.01517,-0.007 0.01552,-0.006 0.01376,-0.008 0.04198,-0.0169 0.0448,-0.0131 v 10e-4 l 0.0078,0.004 m -0.822678,0.68898 -0.03704,0.0152 -0.006,0.0469 0.01552,0.0434 0.01482,0.0272 0.0071,0.006 -0.01129,0.0166 -0.0053,0.0286 0.01164,0.025 -0.0088,0.0254 -0.0187,0.0402 -0.0049,0.0244 0.0067,0.01 -0.0018,0.0127 -0.0032,0.0385 -0.0067,0.0289 0.0035,0.0173 -0.0092,0.0134 0.0028,0.0346 -0.0095,0.0335 -0.0067,0.0332 -0.01446,0.0258 -0.0011,0.0342 0.0046,0.0699 -0.0067,0.0335 -0.0014,0.0353 v 0.0335 0.0317 l -0.01129,0.0109 -0.0014,0.0162 -0.0074,0.0487 -0.0071,0.008 -0.0021,0.0367 3.53e-4,0.0377 -7.06e-4,0.0363 -0.0078,0.0328 -0.0063,0.0152 -0.0011,0.0208 -0.0042,-3.5e-4 3.53e-4,0.0378 -0.01023,0.0307 7.06e-4,0.0377 -0.0088,0.0325 -0.0039,0.0399 -0.0018,0.0183 -0.0039,0.0176 -0.0014,0.0384 -0.0035,0.0176 -0.0053,0.0141 0.0014,0.0399 0.0039,0.001 -3.53e-4,0.0113 0.0011,0.012 -0.0039,0.009 -0.0081,0.0215 0.0025,0.007 0.0042,0.0212 -0.0071,0.0381 0.0095,0.0547 v 0.019 l -0.0032,0.0233 -0.0071,0.0257 -0.0071,0.018 -3.53e-4,0.002 0.0039,0.0145 -0.0032,0.0176 -0.0056,0.0385 -0.0014,0.0205 -0.0067,0.0155 -0.0025,0.0392 -0.0194,0.0353 -0.0011,0.0258 0.0074,0.009 0.03281,0.0102 -0.0081,0.0258 -0.0056,0.0106 -0.01235,0.002 -0.01905,-0.0159 -0.01129,0.0363 -0.02857,0.003 -0.02046,0.0166 -0.04198,0.0395 -0.02681,0.0162 -0.02364,0.0212 -0.02822,0.0201 -0.04727,0.0272 -0.02822,0.0152 -0.01411,0.006 -0.01058,0.012 -0.03493,0.004 -0.01587,0.006 -0.01764,-10e-4 -0.06667,-0.013 -0.02928,-0.0127 -0.01411,-0.006 -0.0095,-0.0131 -0.01341,-0.0247 -0.0092,-0.0293 -0.01094,-0.0303 -0.0035,-0.0321 3.53e-4,-0.0462 v -0.0526 -0.10089 l 0.0063,-0.0702 0.0018,-0.0321 0.0014,-0.0317 -0.0018,-0.0353 0.0049,-0.0353 c -0.0021,-0.043 0.0063,-0.0829 0.0063,-0.12594 l 0.0014,-0.0572 -0.006,-0.002 0.0014,-0.0159 0.01023,-0.0699 0.01235,-0.0674 -0.0049,-0.0353 0.0067,-0.0325 0.0056,-0.0476 0.0053,-0.0533 0.0011,3.5e-4 -0.0028,-0.0473 -3.52e-4,-0.0448 c 0.01623,-0.0374 0.01094,-0.0914 0.01376,-0.13159 l -7.06e-4,-0.0236 0.0032,-0.0286 0.0049,-0.0607 -0.0046,-0.0307 0.0088,-0.0233 -0.0011,-0.085 0.0095,-0.0706 0.0046,-0.0822 0.0071,-0.079 0.0046,-0.0653 0.0025,-0.005 0.0134,-0.0501 0.01729,-0.0452 c 0.01764,-0.0402 0.0314,-0.0797 0.04974,-0.11889 l 0.03493,-0.0547 0.03986,-0.0416 0.02364,-0.0289 0.0127,-0.0127 0.02011,-0.006 -0.0053,-0.005 0.03175,-0.0208 0.03422,-0.025 c 0.03457,-0.0236 0.07655,-0.0423 0.116417,-0.0543 l 0.06844,-0.013 0.04022,0.005 0.02822,0.007 0.02434,0.0233 0.02117,0.025 0.01587,0.0476 0.0092,0.0268 0.0074,0.0148 3.53e-4,0.004 -0.0053,0.0367 0.03387,0.03 m 0.230717,-1.3014 -0.006,0.009 v 0.0141 l 0.0046,0.005 -0.0063,0.0116 0.0078,0.0109 -0.0067,3.6e-4 -0.0021,0.007 -0.0049,0.012 -0.0049,0.0219 -0.01693,0.0201 -0.0046,0.007 -0.0067,0.002 v 0.0113 l -0.0042,0.007 -0.0071,0.0162 -0.01199,0.0141 -0.01482,0.0106 -0.0127,0.009 0.0032,0.0155 -0.0056,0.004 -0.0042,0.008 -0.02328,0.018 -0.01341,0.007 -0.0081,0.0134 -0.0053,0.007 -0.01799,0.0109 -0.02223,0.0169 -0.0085,0.0106 -0.0127,0.004 -0.0018,0.004 -0.01058,0.008 -0.01587,0.004 -0.0035,0.006 -0.0056,0.003 -0.01199,0.008 -0.0099,0.01 -0.006,0.002 -0.0053,0.004 -0.01341,0.006 -0.0085,0.01 -0.02293,0.0148 -0.01623,0.007 -0.0085,0.0109 -0.0127,-7e-4 0.0025,-0.004 -0.01693,0.007 -0.0039,0.009 -0.01129,7.1e-4 -0.01587,0.004 -0.01905,-0.007 7.05e-4,-0.004 -0.0095,0.004 -0.01129,-7e-4 -0.01164,-0.002 -0.0035,-0.003 -0.01658,0.005 -0.006,-0.006 0.006,-0.006 -0.01834,-0.006 h -0.0099 l -0.0071,-0.005 -0.01376,-0.0116 -0.0063,-0.0233 -0.01235,-0.006 -0.006,-0.0134 -0.0018,0.005 -0.0053,-0.002 -7.05e-4,-0.008 -0.0081,-0.024 v -0.0162 l -0.0071,-0.009 0.0035,-0.0102 -0.0025,-0.013 0.0025,-0.006 -0.0035,-0.004 0.0028,-0.01 0.0028,-0.0229 0.0014,-0.024 0.0063,-0.007 0.0028,-0.0109 0.0095,-0.0197 0.0018,-0.018 0.0056,-0.006 0.0018,-0.008 0.0092,-0.0116 0.0081,-0.0152 0.0053,-0.0173 v -0.0173 l 0.01376,-0.0113 0.0099,-0.0106 0.02822,-0.0416 0.02117,-0.0159 0.01905,-0.0208 0.02399,-0.0159 0.02469,-0.0212 0.04692,-0.0402 0.01623,-0.0131 0.0194,-0.0102 0.02646,-0.0159 0.01764,-0.006 0.01587,-0.009 0.03105,-0.0116 0.01764,-3.6e-4 0.0032,-0.007 0.01023,-7e-4 0.01693,-0.004 0.01623,0.001 0.03069,-0.002 0.0032,0.005 0.0049,-0.005 0.01446,0.004 0.0074,0.002 0.0042,0.004 0.01517,0.005 0.0014,0.005 0.01482,0.0127 0.0056,0.012 0.0025,0.0127 0.0071,0.009 v 0.008 l 0.0032,0.006 0.0049,0.012 0.0025,0.0134 0.0127,0.0226 0.01094,0.0176 v 0.0159 l 0.0014,0.0409 m -1.408642,1.74272 0.0035,-0.007 0.0071,-0.003 0.0042,-0.0173 0.0025,-0.008 0.0035,-0.007 7.06e-4,-0.0258 0.0067,-0.0219 -0.0028,-0.0191 -0.0014,-0.009 0.0018,-0.008 -0.0035,-0.008 -7.05e-4,-0.009 -0.0071,-0.009 -0.0021,-0.013 0.01693,-0.0825 0.0018,-0.0205 0.0049,-0.008 0.01023,7e-4 0.01517,-0.0145 0.0071,-0.019 7.06e-4,-0.0169 -0.0085,-0.004 -0.0035,-7.1e-4 7.06e-4,-0.008 0.01199,-0.0127 0.0078,-0.0173 -0.0063,-0.009 -0.0039,-0.009 0.0035,-0.0162 0.0088,-0.0155 0.0028,-0.007 -0.0011,-0.01 -0.0081,-0.0117 0.0042,-0.0201 0.0046,-0.019 0.0028,-0.0176 0.0071,-0.0236 0.0046,-0.0102 0.0025,-0.01 0.0035,-0.0106 0.0025,-0.0268 0.0018,-0.0106 0.0014,-0.004 -0.0018,-0.003 0.0046,-0.007 0.0018,-0.013 0.0039,-0.0187 0.0074,-0.0173 0.0014,-0.0194 0.0028,-0.0183 0.0028,-0.0187 0.0071,-0.0152 0.0049,-0.0169 -7.06e-4,-0.0201 0.0028,-0.009 0.0049,-0.006 -3.52e-4,-0.0152 0.0021,-0.007 7.06e-4,-0.0102 0.0056,-0.0166 0.0099,-0.0413 0.0078,-0.0201 0.0081,-0.0152 -0.0071,-0.009 0.0081,-0.007 -0.0046,-0.003 0.0035,-0.004 0.0025,-0.0286 0.0035,-0.009 -7.05e-4,-0.0106 0.0063,-0.006 7.05e-4,-0.0106 0.0028,-0.0212 0.0053,-0.008 0.0025,-0.0109 0.0014,-0.0109 0.0042,-10e-4 0.0011,-0.005 0.0028,-0.0208 0.0011,-0.0113 0.0071,-0.004 -0.0014,-0.0148 0.0032,-0.006 3.53e-4,-0.0106 0.0049,-0.008 0.0032,-0.01 0.0028,-0.009 0.0014,-0.007 7.06e-4,-0.008 0.0042,-0.018 0.0053,-0.0162 0.0042,-0.0162 0.0049,-0.006 7.06e-4,-0.0116 0.0032,-0.01 -3.53e-4,-0.01 0.0035,-0.008 0.0025,-0.01 0.0035,-0.0106 0.0049,-0.007 -0.0018,-0.005 0.0049,-0.0134 0.0067,-0.006 0.0046,-0.006 0.0042,-0.002 -3.53e-4,-0.005 0.0011,-0.0116 0.01023,-0.012 0.0046,-0.0123 0.0025,-0.007 0.0014,-0.007 0.0049,-0.0314 0.01129,-0.0123 0.0039,-0.0205 0.0035,-0.0201 0.02434,-0.0215 0.0014,-0.009 0.0035,-0.007 -7.06e-4,-0.007 0.0011,-0.008 0.0018,-0.018 0.01023,-0.0166 0.0014,-0.0116 0.0014,-0.005 0.0021,-0.003 0.0049,-0.0208 0.0053,-0.0187 0.0046,-0.0219 0.01023,-0.0173 0.01446,-0.0134 0.0099,-0.003 0.0067,-0.005 0.01094,-0.0152 0.0035,-0.009 0.0014,-0.0109 0.0049,-0.008 0.0042,-0.008 0.0063,-0.0127 0.0056,-0.0113 0.0011,-0.008 0.0035,-0.0162 -0.0021,-0.0208 0.0078,-0.0173 -0.0056,-0.008 -0.0035,-0.01 0.0035,-0.0201 0.0021,-0.0222 0.0035,-0.008 0.0011,-0.0109 0.0032,-0.0212 0.0014,-0.0219 v -0.01 l 0.0032,-0.009 -7.06e-4,-0.0106 -0.0018,-0.007 0.0067,-0.007 0.0039,-0.009 0.0025,-0.0187 -3.52e-4,-0.0201 0.01023,-0.009 -0.0046,-0.0145 v -0.0183 l 0.01905,-0.0409 0.01976,-0.0423 0.02117,-0.0452 0.0014,-0.0106 -0.0028,-0.009 0.0099,-0.0268 0.01129,-0.0392 0.0049,-0.0208 0.0021,-0.0222 0.0078,-0.0219 0.0018,-0.0123 0.0099,-0.007 0.01199,-0.0173 0.0127,-0.0356 0.01235,-0.006 0.0042,-0.0134 0.0039,-0.0127 -0.01587,-0.0212 -0.0018,-0.0268 0.0053,-0.008 0.0049,-0.009 0.01199,-0.0212 0.0039,-0.0254 0.0021,-0.0141 0.0063,-0.01 0.01023,-0.0102 0.006,-0.0148 0.0014,-0.0123 -0.0064,-0.009 0.0035,-0.0212 0.01305,-0.0194 -3.52e-4,-0.0208 0.0046,-0.0166 0.0053,-0.0109 0.0078,-0.006 -0.0032,-0.005 -0.0042,-0.01 0.0042,-0.0261 0.0099,-0.0279 0.0028,-0.005 0.0021,-0.005 0.0039,-0.01 0.0035,-0.0233 0.0081,-0.0219 0.01164,-0.0183 0.0085,-0.0198 0.0021,-0.0113 0.006,-0.008 -0.0032,-0.0102 0.0039,-0.0113 0.0085,-0.007 0.0025,-0.0123 -0.0053,-0.008 0.0063,-0.01 0.0039,-0.0106 0.0088,-0.005 v -0.0106 l 0.0035,-0.009 0.0067,-0.007 0.0014,-0.0116 0.0025,-0.024 0.0021,-0.0155 0.006,-0.01 0.0011,-0.0123 0.006,-0.009 0.0028,-0.0159 0.0067,-0.0138 0.0032,-0.01 0.0092,-0.0205 0.0035,-0.008 0.0085,-0.003 0.0032,-0.005 0.0025,-0.004 3.53e-4,-0.002 0.0025,-0.007 v -0.006 l 0.0025,-0.004 0.0014,-0.004 -0.0021,-0.004 0.0021,-0.01 0.0025,-0.002 0.0021,-0.002 0.0074,-0.005 0.0014,-0.01 -3.53e-4,-0.0215 0.0014,-0.008 0.0053,-0.006 0.0039,-0.0166 0.0018,-0.0106 0.0088,-0.0162 0.0035,-0.003 v -0.004 l -3.52e-4,-0.01 0.0014,-0.01 0.0078,-0.0159 0.0049,-0.007 0.0088,-0.0148 3.53e-4,-0.0102 0.0071,-0.0208 0.0074,-0.0183 0.02822,-0.0427 0.01164,-0.0243 0.0056,-0.0127 -0.0039,-0.0102 0.01588,-0.0208 0.0081,-0.0275 0.0092,-0.0109 0.0042,-0.006 0.0049,-0.005 0.0028,-0.008 0.0049,-0.005 0.0025,-0.0183 0.0032,-0.0141 -0.0053,-0.0141 0.0021,-0.0187 0.0011,-0.0113 0.01023,-0.0265 0.01199,-0.0261 0.0127,-0.0321 0.0074,-0.0123 0.0039,-0.018 0.01517,-0.0296 0.0014,-0.008 0.0056,-0.005 0.0035,-0.0173 0.0099,-0.0155 -7.05e-4,-0.009 0.0042,-0.005 0.01376,-0.0265 0.0049,-0.007 -0.0025,-0.008 0.0063,-0.004 0.0021,-0.008 0.0081,-0.0183 -3.52e-4,-0.008 0.01976,-0.042 0.03634,-0.0825 0.02399,-0.0466 -0.0032,-0.003 0.0067,-0.0138 0.006,-0.0138 0.01199,-0.0282 0.0035,-0.006 0.0053,-0.004 0.0035,-0.0152 0.01129,-0.0268 0.01658,-0.0332 0.0042,-0.008 7.05e-4,-0.007 0.0081,-0.0159 0.0028,-0.01 0.0053,-0.005 0.0074,-0.0152 0.0053,-0.0169 0.01376,-0.0226 0.0035,-0.0113 0.01235,-0.0233 0.01482,-0.025 0.01235,-0.01 0.01199,-0.008 0.0127,-0.0339 0.0042,-0.0162 0.01305,-0.009 0.01129,-0.0233 -0.0018,-0.003 0.0095,-0.006 0.0018,-0.0123 0.01482,-0.0194 0.01517,-0.0212 0.0063,-0.0109 0.01376,-0.0261 0.03493,-0.0444 0.0067,-0.009 0.0078,-0.002 0.0074,-0.0134 0.0081,-0.0152 0.01235,-0.0148 0.01023,-0.0109 0.01164,-0.0176 0.01023,-0.012 0.01164,-0.009 0.006,-0.007 0.0011,-0.008 0.0063,-0.007 0.0071,-0.008 0.0056,-0.008 0.0085,-0.005 0.0028,-0.007 0.0095,-0.005 0.0042,-0.009 0.0078,-0.004 v -0.005 l 0.0032,-0.002 0.01411,-0.0205 0.02117,-3.5e-4 0.0063,-0.0152 0.0078,-0.005 0.0056,-0.008 0.0011,-0.008 3.53e-4,-0.007 0.0074,-0.005 0.0056,0.007 -0.0039,0.008 -0.0025,0.004 0.0039,0.002 0.01305,-0.004 0.0039,-0.008 0.0063,-0.006 -0.0011,-0.0155 -3.52e-4,-0.0113 0.01129,-0.006 7.05e-4,-0.0102 0.0053,0.005 -0.0021,0.008 0.01023,-0.001 0.0032,-0.002 -3.53e-4,-0.006 3.53e-4,-0.006 0.0039,0.001 0.0018,-0.009 0.0085,-0.003 0.0053,-0.001 0.0035,-0.002 0.0071,0.003 0.0011,0.004 0.0049,-7e-4 0.0018,-0.004 0.0039,-0.002 0.0046,-0.006 0.0046,-0.008 7.05e-4,-0.0117 0.0046,-0.007 0.0078,-0.001 0.0049,-0.009 0.0014,-0.008 0.0021,-0.0198 -3.53e-4,-0.0201 0.01235,-0.0116 h 0.0049 l 0.0032,-0.002 0.0078,0.002 -0.0053,-0.0152 0.0053,-0.008 0.0074,-0.006 0.0021,-0.01 0.0018,-0.004 0.0046,-0.001 0.0042,-0.008 0.0056,-0.006 3.53e-4,-0.004 0.0028,-0.005 0.0056,-0.008 0.01058,-0.0141 0.0095,-0.0187 0.0032,-0.007 0.0081,-0.0116 0.0039,-0.002 0.0018,-0.008 0.0085,-0.0166 0.0049,-0.018 0.0049,-0.007 0.0035,-0.008 3.52e-4,-0.0113 0.0028,-0.008 0.0035,-0.019 0.0035,-0.0215 0.0032,-0.009 0.0021,-0.009 -0.0032,-0.002 -0.0039,-0.007 0.0053,-0.006 -7.06e-4,-0.0208 3.53e-4,-0.0388 -0.0018,-0.0162 -0.0042,-0.0145 0.0018,-0.01 -0.0021,-0.0102 -0.0021,-0.0212 -0.0074,-0.0187 -0.0025,-0.009 -0.0042,-0.0106 v -0.0123 l -0.006,-0.0162 -0.0042,-0.009 -0.0028,-0.0109 -0.0088,-0.0159 -0.0025,-0.01 -0.0071,-0.008 -0.0028,-0.009 -0.01341,-0.0254 -0.0039,-0.009 -0.0067,-0.007 -0.02646,-0.0318 -0.01482,-0.012 -0.0039,-0.006 -0.0046,-0.002 -0.0053,-0.008 -0.0067,-0.003 -0.0035,-0.004 -0.0046,-0.004 -0.0025,-0.003 -0.0092,-0.006 -0.0021,-0.007 -0.01235,-0.001 -0.0067,-0.006 -0.01305,-0.01 -0.0092,-0.004 -0.006,-0.006 -0.0187,-0.007 -0.02364,-0.012 -0.0194,-0.008 -0.02046,-0.005 -0.0099,-0.002 h -0.0046 l -0.0053,-0.004 -0.01764,-0.0102 -0.02399,-0.002 -0.02399,-0.005 -0.0254,-0.002 -0.02434,-0.003 -0.01058,0.002 -0.01058,-0.003 -0.01235,0.004 -0.0095,-0.004 -0.02963,0.005 -0.03069,0.004 -0.02434,0.012 -0.02681,0.007 -0.02434,0.0106 c -0.04057,0.0183 -0.07232,0.0487 -0.109008,0.0737 l -0.02752,0.0261 -0.0053,0.007 -0.01094,0.001 -0.0042,0.0169 -0.01764,0.0162 -0.0063,0.002 -0.01058,0.01 -0.0088,0.0173 -0.02364,0.0272 -0.02258,0.0268 -0.03422,0.0519 -0.01199,0.0339 -0.03351,0.0508 -0.02822,0.054 c -0.01799,0.0339 -0.02963,0.0702 -0.04445,0.10725 l -0.02434,0.0607 -0.02505,0.0589 -0.02399,0.072 -0.02434,0.0653 c -0.01658,0.0406 -0.03704,0.0787 -0.04904,0.11959 l -0.02434,0.0642 -0.02258,0.0635 c -0.01693,0.0395 -0.02752,0.0825 -0.04339,0.12242 l -0.02011,0.0399 -0.01517,0.0501 -0.03528,0.0942 c -0.01446,0.0346 -0.02646,0.0699 -0.03845,0.10513 -0.01517,0.0452 -0.03316,0.0885 -0.04833,0.1337 l -0.02293,0.0554 -0.02081,0.0621 -0.02681,0.0702 -0.02857,0.0889 c -0.01235,0.0321 -0.02822,0.0628 -0.03845,0.0956 -0.01305,0.0423 -0.02752,0.0829 -0.0441,0.12347 -0.04022,0.0981 -0.07232,0.20179 -0.104422,0.30269 l -0.01094,0.0279 -0.0088,0.0247 -0.01658,0.0243 -0.01411,0.0307 -0.01482,0.0667 c -0.0021,0.0328 -0.01693,0.055 -0.02716,0.0847 l -0.01305,0.0452 -0.03916,0.0854 -0.02222,0.0568 -0.01482,0.0624 -0.01023,0.0505 -0.01976,0.0561 -0.01376,0.0635 -0.02716,0.061 7.06e-4,0.066 -0.01834,0.031 -0.01094,0.0409 -0.006,0.0388 -0.01517,0.0423 c -0.01587,0.0557 -0.02928,0.10901 -0.04692,0.16334 l -0.02081,0.0836 -0.02893,0.0811 c -0.01623,0.055 -0.02752,0.11183 -0.03845,0.16792 l -0.01341,0.0586 0.0018,0.0268 -0.01729,0.0342 -0.0081,0.0437 -0.02681,0.0776 c -0.01164,0.0589 -0.03351,0.11253 -0.04586,0.17004 -0.0092,0.0448 -0.02787,0.0871 -0.03563,0.13229 l -0.0078,0.0596 -0.02046,0.0684 -0.01235,0.0466 -0.0032,0.0229 -0.01129,0.0176 -0.006,0.0385 -0.0071,0.037 -0.02011,0.0825 c -0.01023,0.042 -0.02187,0.0822 -0.03281,0.12559 l -0.01341,0.067 c -0.0092,0.0413 -0.01587,0.084 -0.02258,0.12559 l -0.01587,0.066 -0.01341,0.0635 -0.0078,0.06 -0.01517,0.0582 -0.0081,0.0575 -0.02222,0.0924 -0.01623,0.0773 -0.0099,0.0582 c -0.0046,0.031 -0.01023,0.0621 -0.01341,0.0942 -0.0063,0.0642 -0.02187,0.1263 -0.03281,0.18944 l -0.01376,0.0829 c -0.0021,0.0423 -0.0187,0.0847 -0.02258,0.12735 l -0.0099,0.0466 -0.01164,0.096 c -0.0095,0.0596 -0.01587,0.12488 -0.03281,0.17956 l -0.0095,0.0656 c -0.0078,0.0801 -0.02293,0.15946 -0.03493,0.23918 -0.0056,0.0388 -0.01023,0.0773 -0.01482,0.11607 l -0.0056,0.0596 -0.0028,0.0402 -0.0078,0.0138 3.53e-4,0.0194 -0.0099,0.0748 -0.0092,0.003 -0.0025,0.0226 -0.01164,0.0208 -0.0095,-0.0183 -0.02646,-0.007 -0.0088,-0.0201 7.06e-4,-0.018 0.0025,-0.0508 -0.0067,-0.019 0.0064,-0.019 -0.03457,-0.0272 0.0074,-0.0148 -0.0039,-0.0233 v -0.0444 -0.0406 l -0.01164,-0.0388 -0.0092,-0.0402 0.0074,-0.0155 -0.0018,-0.0247 0.0088,-0.0367 c -0.01199,-0.0402 0.0011,-0.0296 -7.06e-4,-0.0452 l -0.01058,-0.036 -0.01482,-0.009 -0.0074,-0.0169 -0.0021,-0.0102 0.01129,-0.005 -0.0071,-0.004 -0.0035,0.006 -0.01129,-0.0134 0.0042,-0.013 -0.0018,-0.012 0.01976,-0.0155 -0.0056,-0.003 -0.006,0.003 -0.01411,0.004 -0.0127,-0.002 0.0014,-0.0109 -0.0014,-0.0113 -7.05e-4,-0.0222 0.0014,-0.0187 0.0088,-0.0148 -0.0056,-0.0134 v -0.0102 l 0.0042,-0.0159 0.0053,-0.0141 0.0028,-0.0166 0.006,-0.004 0.0032,-0.007 0.0056,-0.0134 -0.0025,-0.0279 -0.01023,-0.0205 -0.0039,-0.0222 -0.0099,-0.0123 -0.0028,-0.0166 -0.0042,-0.01 -0.0056,-0.0134 -0.0042,-0.0166 -0.0078,-0.0123 -0.0014,-0.018 -0.0071,-0.0349 0.0011,-0.0402 -0.0014,-0.0332 -0.006,-0.0116 -0.0032,-0.0155 -0.0067,-0.0127 -0.0081,-0.0187 -0.0085,-0.0303 0.0028,-0.0138 -0.0039,-0.0159 -0.0028,-0.0162 -0.0025,-0.0109 0.01623,-0.004 0.0049,-0.0134 -0.01834,-0.0257 -0.01446,-0.0314 0.0032,-0.0229 -0.0039,-0.0247 v -0.0233 l -0.0074,-0.0183 -0.0039,-0.0201 -0.01235,-0.013 -0.01305,-0.0392 0.0028,-0.0113 -0.01199,-0.008 -0.0021,-0.0117 -0.0078,-0.004 -7.06e-4,-0.013 0.0028,-0.0166 0.0056,-0.0173 -0.01623,-0.01 -0.01199,-0.0113 -0.0021,-0.0215 3.53e-4,-0.0208 -0.0064,-0.018 0.0064,-0.0272 -0.0011,-0.0145 -0.012,-0.004 -0.0127,-0.0727 0.0049,-0.0127 -0.0067,-0.0155 -0.0088,-0.0356 -0.0039,-0.0243 -0.006,-0.0243 0.0049,-0.009 0.0074,-0.01 -0.01129,-0.003 -0.0053,-0.008 0.0039,-0.0102 -0.0046,-0.008 -0.0021,-0.0222 0.0025,-0.0102 -0.0028,-0.006 -0.0053,-0.005 -0.0018,-0.0123 -0.0025,-0.0116 -0.0011,-0.006 -0.0025,-0.005 v -0.008 l 0.0049,-0.008 -0.0053,-0.008 -0.0035,-0.0113 0.01164,-0.0155 0.0063,-0.007 -0.0063,-0.009 -3.53e-4,-0.0134 -0.0032,-0.0134 -0.0014,-0.012 -0.0088,-0.0123 0.0099,-0.008 -0.0053,-0.008 0.0074,-0.008 -0.0071,-0.007 -0.0194,-0.008 -7.06e-4,-0.0233 0.0092,-0.018 -0.0046,-0.007 -0.0063,-0.01 -7.05e-4,-0.0254 0.01058,-0.004 -0.0095,-0.006 -0.01517,0.004 h 7.05e-4 l -0.0046,-0.01 0.0085,-0.005 0.0032,-0.0106 -0.0085,-0.005 -0.0039,-0.0226 0.0085,-0.002 -0.0025,-0.009 -0.0063,-0.009 -0.0078,-0.008 -0.0067,-0.0268 0.0032,-0.0106 0.0053,-0.01 -0.01305,-0.0226 -0.0053,-0.0233 -7.05e-4,-0.0113 -0.0025,-0.0113 -0.0014,-0.0127 -0.0028,-0.0106 0.0011,-0.01 -0.006,-0.037 -0.0046,-0.0226 -0.0046,-0.0243 -0.0056,-0.025 -7.05e-4,-0.0145 -0.0021,-0.0141 -0.0011,-0.0289 -0.0011,-0.0116 -0.0063,-0.0102 -0.0011,-0.0258 -0.0018,-0.005 -0.0039,-0.004 0.0018,-0.009 -0.0053,-0.0257 -0.0067,-0.0275 3.53e-4,-0.0134 -0.0025,-0.0138 -0.0018,-0.0169 -0.0021,-0.008 -0.0042,-0.006 0.0011,-0.006 -0.0014,-0.006 -0.0014,-0.0198 -0.0053,-0.0226 v -0.0127 l -0.0032,-0.0116 -0.0021,-0.0272 -0.0056,-0.0254 -0.0021,-0.0173 -0.0049,-0.0127 -0.0032,-0.0272 -0.0011,-0.0123 -0.0039,-0.0127 -0.01058,-0.055 -0.0028,-0.0254 -0.0074,-0.0236 -0.01587,-0.0494 -0.0095,-0.0155 -0.0028,-0.0117 -0.006,-0.008 -0.0039,-0.0116 -0.01058,-0.0219 -0.006,-0.007 -0.006,-0.01 -0.01199,-0.0123 -0.01094,-0.0134 -0.01623,-0.0127 -0.01376,-0.0138 -0.01305,-0.0109 -0.03104,-0.0162 -0.01199,-0.005 -0.02681,-0.009 -0.0127,-0.004 -0.03175,-0.005 -0.02716,-0.002 -0.0095,-0.003 -0.01164,0.001 -0.02575,-3.5e-4 -0.02434,0.003 -0.02505,0.007 -0.01129,0.004 -0.0074,0.007 -0.01446,0.002 7.05e-4,3.6e-4 -0.02434,0.0102 -0.01799,0.012 -0.03528,0.0265 -0.02893,0.0275 -0.03105,0.0445 -0.03069,0.0603 -0.02328,0.0702 -0.0049,0.0176 -0.0088,0.0166 -0.0088,0.0367 -0.006,0.0113 -0.0042,0.0127 -0.0095,0.0226 -0.0039,0.0134 7.06e-4,0.01 -0.0049,0.003 -0.0018,0.006 -0.02469,0.0797 -0.0071,0.0159 -0.0049,0.0169 -0.01058,0.0335 -0.01164,0.0303 c -0.01446,0.0402 -0.02011,0.0822 -0.03634,0.12207 l -0.01905,0.036 -0.01094,0.0395 -0.0095,0.0476 -0.01588,0.036 -0.01834,0.0529 -0.01693,0.042 -0.0025,0.036 -0.01376,0.0455 -0.02752,0.0815 -0.02364,0.0713 -0.01588,0.0381 -0.01411,0.0349 -0.01023,0.036 -0.0063,0.0437 c -0.01164,0.03 -0.02152,0.0515 -0.02716,0.0836 l -0.03775,0.0649 -0.0099,0.0441 -0.0056,0.0455 -0.02258,0.055 -0.01588,0.0307 -0.0092,0.0353 -0.01517,0.0261 -0.0046,0.0409 c -0.01094,0.0335 -0.02787,0.0646 -0.03951,0.0981 -0.01411,0.0399 -0.03634,0.0762 -0.04798,0.11571 l 0.0074,7.1e-4 -0.0095,0.0339 -0.01446,0.0342 -0.0032,0.0226 -0.01058,0.0169 -0.01446,0.0335 -0.0081,0.0296 -0.0071,0.0349 -0.0254,0.0639 -0.02223,0.0656 c -0.01305,0.0444 -0.0321,0.0935 -0.02505,0.14075 l 0.02258,0.0702 c 0.02258,0.0324 0.05221,0.073 0.08572,0.0903 l 0.05292,0.0201 0.02434,0.009 0.02222,-0.002 0.02893,0.001 0.02117,-0.006 0.02787,-0.003 0.01376,0.001 0.01164,-0.007 0.01305,-10e-4 0.0074,-0.007 0.02293,-0.009 0.0448,-0.0289 0.01905,-0.0215 0.0092,-0.008 0.0067,-0.0145 0.02575,-7.1e-4 -0.0053,-0.0113 0.0049,-0.0339 0.01341,-0.0166 0.0063,-0.0201 -0.0011,-0.012 0.0056,-0.009 0.0092,-0.0102 0.0025,-0.0194 0.0092,-0.012 0.0018,-0.0194 0.01764,-0.0268 0.0067,-0.0148 -0.0035,-0.0117 0.02222,-0.0219 0.0042,-0.0166 0.01058,-0.0127 -7.05e-4,-0.0183 0.0053,-0.0166 0.01411,-0.0321 0.01552,-0.0155 0.01764,-0.007 -0.01834,-0.005 3.53e-4,-0.018 0.0067,-0.006 0.0035,-0.01 0.0014,-0.01 0.0071,-0.004 0.0011,-0.007 -3.52e-4,-0.005 0.0046,-0.002 -0.0025,-0.006 v -0.01 l 0.0063,-0.006 -3.53e-4,-0.004 0.0025,-0.002 0.006,-0.005 0.0032,-0.0134 0.01235,-0.012 v -0.01 l -0.0046,-0.007 0.0014,-0.005 -7.05e-4,-0.005 -0.0018,-0.007 0.0078,-0.007 0.0021,-0.007 0.0053,-0.004 0.0011,-0.005 -0.0074,0.002 -0.0078,-0.001 0.0021,-0.0134 0.0081,-0.006 0.0021,0.003 0.0046,0.002 0.0074,0.003 0.0014,-0.008 -0.0063,-0.005 0.0063,-0.006 0.0025,-0.009 -0.0014,-0.009 0.0025,-0.009 0.0014,-0.009 0.0074,-0.006 0.0039,-0.006 -0.0067,-0.005 -0.0025,-0.012 0.0053,-0.0187 0.0088,7e-4 -0.0025,-0.007 0.0071,-0.0176 0.0028,-0.008 0.01023,-0.002 0.0046,-0.0113 -0.0063,-0.005 -7.06e-4,-0.009 0.0046,-0.0198 0.0049,-0.002 0.0011,-0.007 0.0021,-0.0131 0.0053,-0.006 0.0039,-0.002 0.0042,-0.004 0.0035,-0.003 0.0046,7e-4 0.0014,-0.01 -0.0088,-0.002 -0.0011,-0.004 0.0025,-0.008 0.0049,-0.005 0.0063,-0.004 -0.0039,-0.008 0.01658,-0.006 0.0064,-0.0166 -0.0064,-0.005 -0.0025,-0.01 0.0092,7e-4 -3.53e-4,-0.012 0.0053,-0.004 -0.0018,-0.007 0.0032,-0.019 -0.0042,0.006 -0.0014,-0.007 -0.0042,-0.01 -3.53e-4,-0.0109 0.01376,0.006 0.0046,-0.005 0.0063,-0.004 h 0.01517 l 0.0035,0.006 0.0056,-0.004 -0.0099,-0.009 3.53e-4,-0.004 -0.0074,-0.002 -0.0018,0.005 0.0018,-0.0116 -3.53e-4,-0.007 0.0042,-0.004 -0.0014,-0.0131 0.02293,0.008 0.0021,-0.006 0.0049,-0.004 -3.53e-4,-0.0127 0.0053,-7.1e-4 0.0039,-0.004 v -0.009 l -0.0011,-0.009 0.0032,-0.004 0.0025,-0.005 0.0078,-0.005 0.0035,-0.007 7.06e-4,-0.007 0.0025,-0.002 3.53e-4,-0.005 0.0011,-0.009 0.0078,-0.0141 v -0.009 l 0.0011,-0.004 -7.06e-4,-0.004 0.01376,-0.009 0.0187,3.5e-4 0.0042,0.007 0.0081,7e-4 0.0085,0.002 0.0092,0.002 0.0056,0.005 0.0035,0.007 0.0092,0.0134 0.0092,0.002 0.0056,3.5e-4 -0.0053,0.006 3.53e-4,0.01 v 0.005 l -0.0028,0.004 -0.0021,0.008 -0.0042,0.0162 0.0053,0.005 0.0042,0.007 0.0092,-0.01 0.01623,-0.008 0.01341,0.009 -0.0071,0.0123 -0.0074,0.004 0.0028,0.008 3.53e-4,0.0102 3.52e-4,0.01 -0.0053,0.009 0.01587,0.0109 -0.0049,0.005 -0.0011,0.005 -0.0046,0.002 -0.0063,0.003 0.0025,0.008 0.0039,0.006 -0.0032,0.01 -0.0032,0.0187 0.01446,0.0109 -0.0018,0.0148 0.0025,0.0392 0.01482,0.0152 0.0078,0.001 0.0018,0.009 0.0042,0.006 -0.0011,0.01 0.0078,10e-4 0.0039,0.009 0.0035,0.0328 -0.0099,0.0279 0.01305,-0.009 0.0032,0.0388 0.006,0.0141 0.0028,0.018 0.0039,0.0374 0.006,0.0314 0.0011,0.0265 0.0046,0.0176 0.0074,0.0363 0.0035,0.0381 0.0025,0.0194 0.0039,0.0134 -0.0032,0.005 0.0018,0.006 0.0028,0.013 0.0053,0.0289 0.0056,0.03 0.0035,0.0258 0.0053,0.0236 0.0046,0.0169 0.0014,0.0367 0.0018,0.008 -0.0035,0.007 -3.53e-4,0.0187 v 0.0399 l 0.0028,0.01 -0.0035,0.0106 0.01446,0.0247 0.0035,0.0127 0.0085,0.01 0.0011,0.0208 0.006,0.0452 0.0042,0.0325 0.0042,0.018 -0.0035,0.0152 0.0035,0.0162 0.0049,0.0166 0.0056,0.036 0.01129,0.0755 0.0011,0.0169 0.0053,0.0155 3.53e-4,0.0205 0.0042,0.018 0.0042,0.0328 0.0032,0.0148 0.0046,0.036 0.0032,0.019 v 0.01 l 0.0035,0.006 0.0021,0.0176 0.0035,0.0381 0.0042,0.0166 0.0035,0.0173 0.0018,0.036 0.0056,0.0141 -0.0032,0.013 0.0039,0.005 7.05e-4,0.008 0.0028,0.0162 0.0078,0.0367 0.0039,0.0349 0.0035,0.0286 0.0018,0.0173 0.0042,0.0219 0.0032,0.0208 0.0018,0.0279 0.0092,0.0296 0.0021,0.0141 -0.0032,0.0159 0.0088,0.018 -7.06e-4,0.0155 0.0053,0.0183 0.0014,0.01 -0.0014,0.007 0.0039,0.0141 -0.0046,0.009 0.0049,0.008 0.0039,0.024 -7.06e-4,0.0109 0.006,0.008 -3.53e-4,0.0243 0.0067,0.0229 -7.05e-4,0.012 v 0.005 l 0.0042,0.002 -7.06e-4,0.0102 0.0039,0.0116 -3.53e-4,0.0236 h 0.006 v 0.004 l -0.0014,0.007 7.06e-4,0.012 0.0018,0.0141 0.0018,0.0138 0.0014,0.0183 0.0039,0.004 v 0.008 l 0.0032,0.0247 0.0018,0.0247 0.006,0.006 -0.0021,0.0102 0.0011,0.0131 0.0028,0.0106 0.0014,0.0222 0.0014,0.004 -0.0018,0.004 0.0067,0.007 0.0011,0.012 0.0018,0.0131 v 0.0134 l 0.0056,0.007 -7.05e-4,0.0162 0.0049,0.0145 0.0035,0.007 -0.0035,0.006 0.0039,0.0145 -0.0021,0.0123 0.0021,0.007 0.0021,0.008 0.0078,0.0307 0.0011,0.0176 0.0028,0.002 -0.0011,0.012 0.0018,0.0109 0.006,0.0197 0.0014,0.0127 0.0042,0.008 -0.0025,0.009 0.0011,0.01 0.0042,0.0159 -0.0056,0.0166 -0.0042,0.0155 7.06e-4,0.0155 -0.0035,0.01 -0.0025,0.0131 0.0011,0.0176 0.0099,0.004 0.0092,0.005 0.01305,0.0169 0.0025,0.0109 0.0018,0.01 0.0032,0.009 -0.0042,0.008 -0.01023,0.0173 -0.0081,0.006 -0.0092,0.005 0.0021,0.006 -0.0049,0.007 0.0067,-0.006 0.0074,0.002 0.0063,-0.003 0.01235,0.003 0.006,0.004 0.0035,0.009 0.0056,0.0201 7.06e-4,0.0222 0.0042,0.0212 0.0046,0.0219 0.0035,0.0102 0.0021,0.0106 -0.0014,0.005 0.0014,0.004 0.0018,0.008 3.52e-4,0.01 7.06e-4,0.009 -0.0014,0.008 -0.0085,0.004 0.0085,0.01 0.0042,0.01 0.0049,0.0102 0.0011,0.0109 0.0049,0.01 -7.05e-4,0.009 0.0039,0.009 7.06e-4,0.013 0.0032,0.0265 -3.53e-4,0.012 -0.0063,0.007 0.0014,0.0208 0.0078,0.006 0.0042,0.01 0.0074,0.0187 7.06e-4,0.0215 0.0032,0.009 v 0.0127 l 0.0046,0.006 0.0039,0.0282 0.0056,0.0243 0.0025,0.0226 0.0014,0.0106 3.53e-4,0.0113 0.0018,0.005 0.0046,3.5e-4 -0.0018,0.0109 0.0014,0.005 -3.53e-4,0.005 -0.0025,0.009 -0.0021,0.006 0.0067,0.008 0.0014,0.0109 0.0042,0.009 0.0042,0.0332 0.0067,0.0346 0.0025,0.0176 0.0025,0.0162 0.0021,0.0159 0.0011,0.0113 0.0035,0.0106 7.06e-4,0.0127 0.0039,0.01 0.0042,0.0222 0.0049,0.0226 0.0025,0.009 -7.05e-4,0.0155 0.0049,0.0145 -0.0014,0.01 0.0046,0.005 -0.0035,0.004 0.0025,0.004 0.0018,0.005 3.53e-4,0.006 -0.0032,0.01 0.0071,0.013 0.0018,0.009 0.0035,0.001 7.06e-4,0.005 v 0.01 l 0.0039,0.0198 0.0035,0.009 -0.0025,0.007 0.0049,0.0148 0.006,0.0155 -3.53e-4,0.006 -0.0032,0.004 0.006,0.008 0.0018,0.0208 0.0025,0.01 0.0049,0.01 0.0025,0.0138 0.0018,0.0127 0.0021,0.005 -0.0025,0.004 0.0039,0.008 0.0049,0.0219 3.53e-4,0.0113 0.0035,0.0109 0.0014,0.0109 0.0074,0.0197 -7.05e-4,0.007 0.0018,0.007 0.0025,0.006 0.0074,0.0215 -0.0018,0.0102 0.0042,0.0148 0.006,0.008 0.0056,0.0113 0.0078,0.0194 0.0067,0.006 0.01129,0.0166 0.0078,0.008 0.0021,0.005 0.0049,0.003 0.0049,0.009 0.0074,0.006 0.01305,0.009 0.01164,0.004 0.0025,0.006 0.0074,0.008 0.01729,0.006 0.02293,0.01 0.01164,0.004 0.01693,0.003 0.02223,0.005 0.01094,-0.004 0.01164,-7.1e-4 h 0.02434 l 0.01164,-0.004 h 0.01341 l 0.02469,-0.006 0.04127,-0.0102 v -0.002 l -0.0011,-0.006 0.01094,-3.5e-4 0.0067,-0.007 0.0099,-0.005 0.01023,-0.005 0.0071,-0.005 0.01729,-0.0134 0.01411,-0.0131 0.0071,-0.007 0.0071,-0.007 0.0056,-0.0127 0.0049,-0.004 0.0028,-0.006 0.0071,-0.0106 0.0053,-0.01 0.0025,-0.008 0.0056,-0.007 0.0042,-0.0145 0.0081,-0.0205 0.0056,-0.0233 0.0049,-0.008 0.0025,-0.01 0.0039,-0.0222 0.0049,-0.009 0.0014,-0.0109 0.0064,-0.0219 0.0014,-0.0102 v -0.0113 l 0.0088,-0.0356 0.0071,-0.008 -0.0078,-0.006 0.0014,-0.009 0.0056,-0.0226 0.0032,-0.0219 7.05e-4,-0.0127 7.06e-4,-0.0106 0.0071,-0.005 -3.52e-4,-0.009 0.0021,-0.0222 0.0042,-0.0212 0.0028,-0.024 0.0035,-0.0215 0.0018,-0.0169 0.0039,-0.024 3.53e-4,-0.0113 0.0011,-0.0109 0.0014,-0.0116 0.0011,-0.0113 0.0056,-0.0208 0.0039,-0.0236 0.0025,-0.0102 -0.0014,-0.005 0.0018,-0.004 -0.0021,-0.01 0.0049,-0.009 7.06e-4,-0.0113 0.0028,-0.0226 0.0035,-0.008 -0.0011,-0.0117 0.0028,-0.012 -3.52e-4,-0.0113 0.0035,-0.006 v -0.0102 l 0.0049,-0.006 -0.0039,-0.005 0.0025,-0.007 7.06e-4,-0.0166 3.53e-4,-0.0123 0.0032,-0.0113 0.0014,-0.0106 0.0046,-0.008 0.0021,-0.0243 0.0025,-0.024 7.05e-4,-0.0205 0.0042,-0.0208 0.0011,-0.005 0.0032,-0.003 -0.0018,-0.0106 3.53e-4,-0.0109 0.0039,-0.0201 0.0025,-0.01 0.0025,-0.0222 0.0018,-0.024 -0.0018,-0.009 0.0053,-0.007 0.0025,-0.01 -7.06e-4,-0.009 0.0021,-0.009 v -0.0102 l 3.52e-4,-0.0109 0.0018,-0.0229 0.0039,-0.009 -0.0028,-0.004 0.0032,-0.003 7.05e-4,-0.0127 3.53e-4,-0.0123 0.0032,-0.0212 -0.0011,-0.0113 0.0042,-0.008 0.0025,-0.0229 0.0025,-0.0215 0.0039,-0.0219 v 0.001 -0.0169 l 0.0032,-0.0109 0.0018,-0.024 0.0018,-0.01 0.0028,-0.0106 0.0028,-0.004 -3.53e-4,-0.006 0.0011,-0.0123 7.06e-4,-0.0233 0.0018,-0.0109 -7.06e-4,-0.006 0.0053,-0.0201 0.0014,-0.0226 0.0011,-0.0226 0.0014,-0.0131 0.0014,-0.006 0.0046,-0.002 -0.0039,-0.007 0.0046,-0.008 7.06e-4,-0.0219 0.0018,-0.0226 0.0021,-0.0205 0.0046,-0.0257 -3.52e-4,-0.0117 0.0025,-0.0106 0.0028,-0.0236 0.0028,-0.009 v -0.0116 l 0.0042,-0.0233 0.0021,-0.0233 3.53e-4,-0.006 0.0035,-0.002 -0.0028,-0.003 -3.53e-4,-0.006 0.0053,-0.0183 -7.06e-4,-0.01 0.0018,-0.0109 0.0028,-0.0215 0.0018,-0.01 0.0011,-0.012 0.0028,-0.0109 0.0014,-0.0123 -0.0021,-0.01 0.0053,-0.002 3.53e-4,-0.0187 0.0011,-0.0109 0.0028,-0.0123 v -0.0247 l 0.0064,-0.0201 0.0032,-0.0254 -7.05e-4,-0.01 0.0025,-0.0113 0.0046,-0.01 0.0021,-0.0109 0.0074,-0.006 0.0011,-0.007 0.0021,-0.004 0.0014,-0.005 0.0035,-0.002 0.0014,-0.009 0.0025,-0.007 0.0018,-0.008 0.0046,-0.006 v -0.008 -0.0194 l -0.0018,-0.0159 -0.0025,-0.004 0.0042,-0.002 0.0011,-0.006 0.0025,-0.004 0.0092,-0.007 -0.0025,0.004 0.006,3.5e-4 0.0099,0.001 0.0092,-0.005 0.0025,-0.005 -3.53e-4,-0.006 0.01023,-0.0131 -0.0035,-0.008 -0.0056,-0.007 -0.0011,-0.008 -0.0049,-0.005 -0.0042,-0.006 -0.01058,-0.003 -0.0085,-0.018 3.53e-4,-0.0113 0.0039,-0.009 -0.0014,-0.007 -0.0028,-0.01 0.0035,-0.01 -0.0028,-0.008 0.0071,-0.0166 0.0039,-0.0215 3.53e-4,-0.0236 0.0032,-0.0208 0.0046,-0.0212 0.0021,-0.019 0.0018,-0.0222 0.0032,-0.007 3.53e-4,-0.009 -0.0035,-0.0173 0.0014,-0.004 -0.0011,-0.003 -0.0011,-0.003 0.0011,-0.004 0.0042,-0.007 3.53e-4,-0.0106 0.01094,-0.0173 0.0018,-0.001 0.0014,-0.006 0.0049,-0.005 0.0035,-0.0152 0.0042,-3.5e-4 0.0011,-0.003 0.0056,-0.005 0.0127,-0.007 0.0039,-0.019 0.0085,-0.0138 -0.0028,-0.0176 7.05e-4,-0.0138 3.53e-4,-0.005 0.0042,-7.1e-4 7.06e-4,-0.004 0.0039,-0.001 0.0074,-0.004 0.0014,-0.0194 0.0011,-0.0187 0.0035,-0.0155 0.0042,-0.01 0.0011,-0.0106 -0.0025,-0.009 -0.0074,-0.006 0.0035,-0.012 -3.53e-4,-0.01 0.0028,-0.002 -0.0011,-0.004 -7.06e-4,-0.005 0.0021,-0.003 -0.0032,-0.002 -0.0018,-0.005 -0.0011,-0.008 -0.01235,0.005 -0.01482,-0.008 -0.0032,-0.0155 3.53e-4,-0.009 -0.0032,-0.007 -3.53e-4,-0.008 0.0046,-0.001 -7.06e-4,-0.004 0.0025,-0.0176 -0.0014,-0.007 0.0011,-0.01 0.0011,-0.0113 7.06e-4,-0.009 v -0.008 l 0.0042,-0.007 7.06e-4,-0.007 0.0014,-0.01 0.0011,-0.007 0.0025,-0.004 -3.53e-4,-0.004 0.0035,-0.005 0.0039,-0.007 0.0032,-0.0106 -0.0018,-0.008 0.0011,-0.01 0.0032,-0.008 0.0011,-0.0173 0.0021,-0.0173 0.0074,-0.003 0.0039,-0.008 3.52e-4,-0.019 0.0025,-0.0219 -7.06e-4,-0.007 7.06e-4,-0.005 -7.06e-4,-0.004 0.0035,-0.01 0.0025,-0.008 0.0053,-0.005 h 0.0085 l -0.01164,-0.0102 7.06e-4,-0.01 0.0032,-0.002 0.0011,-0.004 0.0032,-0.008 -0.0039,-0.009 -0.0067,-0.007 0.0018,-0.009 0.0021,-0.009 0.0018,-0.004 v -0.005 l 0.01164,-0.0123 0.0046,-0.007 0.0053,-0.001 0.0035,-0.004 0.0042,-0.0377 -7.06e-4,-0.0205 -0.0049,-0.005 0.0042,-0.0155 0.0014,-0.007 0.0032,-0.0162 0.0078,-0.0127 -0.0085,-0.0123 0.0035,-0.0169 -0.0039,-0.0166 0.01129,-0.0339 0.0088,-0.0173 0.0018,-0.005 0.0028,-0.002 0.0018,-0.01 0.0014,-0.0173 0.0014,-0.009 0.0064,-0.0127 0.0021,-0.006 0.0028,-0.0109 0.0032,-0.008 -7.06e-4,-0.01 -3.53e-4,-0.005 -0.0028,-0.001 -0.0032,-0.002 -3.53e-4,-0.004 -0.0011,-0.009 -0.0018,-0.009 0.0032,-0.007 0.0011,-0.009 0.0018,-0.008 0.0025,-0.003 0.0018,-0.004 0.0042,-10e-4 -0.0021,-0.004 0.0067,-0.002 0.0035,-0.002 -7.06e-4,-0.004 0.0053,-0.005"
         style="fill:#ffffff;fill-opacity:1;fill-rule:nonzero;stroke:none;stroke-width:0.35277778"
         id="path3527"
         inkscape:connector-curvature="0" />
      <path
         d="m 106.13372,157.6792 c -0.03,0.0258 -0.0579,0.0681 -0.0833,0.12806 l -1.00506,2.3562 -0.95426,-2.3435 c -0.0469,-0.11924 -0.11959,-0.17921 -0.21767,-0.17921 -0.0811,0 -0.15487,0.0212 -0.22084,0.0642 -0.0663,0.0423 -0.0995,0.0998 -0.0995,0.17286 0,0.0339 0.009,0.0695 0.0258,0.10548 0.0173,0.0363 0.0342,0.0759 0.0515,0.11854 l 1.12007,2.70192 -0.46708,1.04987 c -0.0215,0.0427 -0.0356,0.0787 -0.042,0.10865 l -0.009,0.0769 c 0,0.0727 0.0254,0.12912 0.0765,0.17004 0.0515,0.0402 0.11324,0.0607 0.18591,0.0607 0.0681,0 0.11924,-0.0148 0.15346,-0.0448 0.0342,-0.03 0.0663,-0.0748 0.096,-0.13476 l 1.74836,-4.01426 c 0.0166,-0.0385 0.0328,-0.0758 0.0476,-0.11218 0.0152,-0.036 0.0226,-0.0691 0.0226,-0.0991 0,-0.0723 -0.0321,-0.12806 -0.096,-0.16651 -0.0642,-0.0385 -0.13441,-0.0575 -0.21131,-0.0575 -0.0512,0 -0.0921,0.0127 -0.12171,0.0384"
         style="fill:#e10a0a;fill-opacity:1;fill-rule:nonzero;stroke:none;stroke-width:0.35277778"
         id="path3531"
         inkscape:connector-curvature="0" />
      <path
         d="m 91.851371,157.57661 c -0.256117,0 -0.478014,0.0536 -0.665692,0.16016 -0.18803,0.10654 -0.326672,0.24765 -0.416277,0.42263 -0.07267,-0.17921 -0.191206,-0.32103 -0.355248,-0.4258 -0.164394,-0.10443 -0.376766,-0.15699 -0.637116,-0.15699 -0.196498,0 -0.359834,0.0289 -0.490009,0.0864 -0.130175,0.0575 -0.233538,0.12277 -0.310444,0.19544 -0.07691,0.0727 -0.131233,0.14182 -0.163336,0.20779 -0.0321,0.0663 -0.0501,0.10583 -0.05433,0.11888 v -0.30127 c 0,-0.0938 -0.02258,-0.15769 -0.06738,-0.19191 -0.0448,-0.0342 -0.109714,-0.0512 -0.195087,-0.0512 -0.08537,0 -0.149577,0.0169 -0.191911,0.0512 -0.04304,0.0342 -0.06421,0.0981 -0.06421,0.19191 v 2.80458 c 0,0.0981 0.02328,0.1651 0.07055,0.20179 0.04692,0.036 0.112889,0.054 0.198261,0.054 0.08537,0 0.152753,-0.018 0.201789,-0.054 0.04904,-0.0367 0.07373,-0.10407 0.07373,-0.20249 v -1.36702 c 0,-0.14499 0.01376,-0.2928 0.04127,-0.44273 0.02787,-0.14958 0.07373,-0.28434 0.137936,-0.40429 0.06385,-0.11959 0.151342,-0.21695 0.262467,-0.29174 0.111125,-0.0748 0.249413,-0.11219 0.416277,-0.11219 0.136525,0 0.248356,0.018 0.335845,0.0543 0.08749,0.0363 0.156986,0.0878 0.208139,0.15416 0.05115,0.0663 0.08643,0.14888 0.105833,0.24695 0.01905,0.0984 0.02857,0.20743 0.02857,0.32738 v 1.86725 c 0,0.14993 0.09419,0.22437 0.281869,0.22437 0.174978,0 0.262467,-0.0744 0.262467,-0.22437 v -1.39277 c 0,-0.14499 0.01411,-0.2928 0.04163,-0.44238 0.02752,-0.14993 0.07373,-0.28469 0.137936,-0.40464 0.06385,-0.11924 0.151342,-0.21801 0.262114,-0.29492 0.111125,-0.0769 0.249767,-0.11536 0.416278,-0.11536 0.136525,0 0.248708,0.018 0.336197,0.0543 0.08749,0.0363 0.156986,0.0878 0.208139,0.15416 0.05115,0.0663 0.08643,0.14888 0.10548,0.24695 0.01905,0.0984 0.02893,0.20743 0.02893,0.32738 v 1.86725 c 0,0.14993 0.09384,0.22437 0.281517,0.22437 0.17533,0 0.262466,-0.0744 0.262466,-0.22402 v -2.03588 c 0,-0.37535 -0.09807,-0.65405 -0.294216,-0.83573 -0.196497,-0.18133 -0.46355,-0.27199 -0.800453,-0.27199"
         style="fill:#e10a0a;fill-opacity:1;fill-rule:nonzero;stroke:none;stroke-width:0.35277778"
         id="path3535"
         inkscape:connector-curvature="0" />
      <path
         d="m 95.782021,160.20177 c -0.170744,0.2219 -0.416278,0.33302 -0.736247,0.33302 -0.31997,0 -0.565856,-0.11112 -0.7366,-0.33302 -0.170745,-0.2219 -0.255764,-0.52705 -0.255764,-0.91546 0,-0.38841 0.08502,-0.6918 0.255764,-0.90946 0.170744,-0.21766 0.41663,-0.32632 0.7366,-0.32632 0.319969,0 0.565503,0.10866 0.736247,0.32632 0.170392,0.21766 0.256117,0.52105 0.256117,0.90946 0,0.38841 -0.08572,0.69356 -0.256117,0.91546 m 0.720372,-1.63583 c -0.07479,-0.21131 -0.18168,-0.39053 -0.320322,-0.53799 -0.138642,-0.1471 -0.304094,-0.25929 -0.496006,-0.33619 -0.192263,-0.0769 -0.405694,-0.11536 -0.640291,-0.11536 -0.23495,0 -0.448028,0.0385 -0.640292,0.11536 -0.192264,0.0769 -0.357717,0.18909 -0.496358,0.33619 -0.138642,0.14746 -0.245534,0.32668 -0.31997,0.53799 -0.07479,0.21131 -0.112183,0.45156 -0.112183,0.72037 0,0.26882 0.03739,0.51012 0.112183,0.7232 0.07444,0.21378 0.181328,0.39405 0.31997,0.54116 0.138641,0.14711 0.304094,0.26035 0.496358,0.33937 0.192264,0.079 0.405342,0.11818 0.640292,0.11818 0.234597,0 0.448028,-0.0392 0.640291,-0.11818 0.191912,-0.079 0.357364,-0.19226 0.496006,-0.33937 0.138642,-0.14711 0.245533,-0.32738 0.320322,-0.54116 0.07444,-0.21308 0.111831,-0.45438 0.111831,-0.7232 0,-0.26881 -0.0374,-0.50906 -0.111831,-0.72037"
         style="fill:#e10a0a;fill-opacity:1;fill-rule:nonzero;stroke:none;stroke-width:0.35277778"
         id="path3539"
         inkscape:connector-curvature="0" />
      <path
         d="m 98.764898,157.57661 c -0.208844,0 -0.383117,0.0321 -0.521758,0.096 -0.138642,0.0642 -0.250825,0.13476 -0.336198,0.21131 -0.102305,0.0896 -0.183444,0.19015 -0.243063,0.30127 v -0.30127 c 0,-0.0938 -0.02258,-0.15769 -0.06738,-0.19191 -0.0448,-0.0342 -0.110067,-0.0512 -0.195439,-0.0512 -0.08537,0 -0.149225,0.0169 -0.191911,0.0512 -0.04269,0.0342 -0.06421,0.0981 -0.06421,0.19191 v 2.80458 c 0,0.0981 0.02364,0.1651 0.07056,0.20179 0.04692,0.036 0.113242,0.054 0.198614,0.054 0.08537,0 0.1524,-0.018 0.201436,-0.054 0.04939,-0.0367 0.07373,-0.10372 0.07373,-0.20179 v -1.36384 c 0,-0.14499 0.01799,-0.29139 0.05433,-0.4385 0.03634,-0.14746 0.09208,-0.28081 0.166511,-0.4004 0.07479,-0.11924 0.171803,-0.21661 0.291395,-0.29104 0.119592,-0.0748 0.262467,-0.11219 0.428978,-0.11219 0.27305,0 0.462139,0.066 0.566561,0.19862 0.104775,0.13229 0.156986,0.3242 0.156986,0.57608 v 1.86302 c 0,0.14958 0.09384,0.22402 0.281869,0.22402 0.174978,0 0.262114,-0.0744 0.262114,-0.22402 v -1.99743 c 0,-0.3884 -0.104422,-0.67662 -0.313619,-0.8643 -0.209197,-0.18768 -0.482247,-0.28187 -0.819503,-0.28187"
         style="fill:#e10a0a;fill-opacity:1;fill-rule:nonzero;stroke:none;stroke-width:0.35277778"
         id="path3543"
         inkscape:connector-curvature="0" />
      <path
         d="m 101.03075,158.96599 c 0.0127,-0.12382 0.0416,-0.24201 0.0868,-0.35525 0.0448,-0.11324 0.10619,-0.21131 0.18309,-0.29457 0.0769,-0.0833 0.17145,-0.14922 0.28258,-0.19861 0.11148,-0.0487 0.24201,-0.0734 0.39194,-0.0734 0.14957,0 0.28045,0.0254 0.39193,0.0765 0.11113,0.0515 0.20426,0.11854 0.2794,0.20179 0.0748,0.0833 0.133,0.18168 0.17322,0.29457 0.0409,0.11324 0.0677,0.22966 0.0808,0.3489 z m 2.41371,0.24977 c 0,-0.23037 -0.0321,-0.44591 -0.096,-0.64664 -0.0642,-0.20074 -0.15804,-0.37465 -0.28152,-0.52176 -0.12382,-0.14746 -0.27799,-0.26247 -0.46108,-0.34573 -0.18379,-0.0832 -0.39476,-0.12523 -0.63394,-0.12523 -0.23495,0 -0.44732,0.042 -0.63712,0.12523 -0.19014,0.0833 -0.35207,0.20038 -0.48648,0.35208 -0.1344,0.15134 -0.23812,0.33196 -0.31079,0.54081 -0.0723,0.20919 -0.10866,0.44203 -0.10866,0.69814 0,0.25153 0.0363,0.48331 0.10866,0.69462 0.0727,0.21132 0.17744,0.39264 0.31397,0.54398 0.13652,0.1517 0.30198,0.26917 0.496,0.35243 0.19438,0.0833 0.41099,0.12453 0.64982,0.12453 0.1838,0 0.34361,-0.0212 0.48048,-0.0639 0.13653,-0.0427 0.25295,-0.096 0.34855,-0.16016 0.0967,-0.0639 0.17533,-0.13124 0.23742,-0.20144 0.0617,-0.0706 0.11183,-0.13547 0.15028,-0.19544 0.0469,-0.0765 0.0702,-0.14287 0.0702,-0.19826 0,-0.0642 -0.0286,-0.11536 -0.0861,-0.15381 -0.0579,-0.0385 -0.11642,-0.0575 -0.17604,-0.0575 -0.0557,0 -0.0974,0.0106 -0.12488,0.0317 -0.0279,0.0219 -0.0568,0.0536 -0.0864,0.0963 -0.0258,0.0342 -0.0589,0.0744 -0.0995,0.12171 -0.0406,0.0469 -0.0928,0.0924 -0.15698,0.13723 -0.0639,0.0448 -0.14182,0.0833 -0.23354,0.11536 -0.0917,0.0321 -0.19932,0.0483 -0.3235,0.0483 -0.31574,0 -0.56021,-0.0942 -0.73307,-0.28187 -0.17286,-0.18767 -0.25929,-0.45473 -0.25929,-0.80045 h 2.17699 c 0.17498,0 0.26247,-0.0765 0.26247,-0.23036"
         style="fill:#e10a0a;fill-opacity:1;fill-rule:nonzero;stroke:none;stroke-width:0.35277778"
         id="path3547"
         inkscape:connector-curvature="0" />
    </g>
  </g>
</svg>
